<?xml version="1.0" encoding="UTF-8" standalone="no"?>
<svg
   xmlns:dc="http://purl.org/dc/elements/1.1/"
   xmlns:cc="http://creativecommons.org/ns#"
   xmlns:rdf="http://www.w3.org/1999/02/22-rdf-syntax-ns#"
   xmlns:svg="http://www.w3.org/2000/svg"
   xmlns="http://www.w3.org/2000/svg"
   viewBox="0 0 226.77165 94.110237"
   height="94.110237"
   width="226.77165"
   xml:space="preserve"
   id="svg2"
   version="1.1"><metadata
     id="metadata8"><rdf:RDF><cc:Work
         rdf:about=""><dc:format>image/svg+xml</dc:format><dc:type
           rdf:resource="http://purl.org/dc/dcmitype/StillImage" /></cc:Work></rdf:RDF></metadata><defs
     id="defs6" /><g
     transform="matrix(1.3333333,0,0,1.3333333,0,2.352756e-6)"
     id="g10"><g
       id="g12"><path
         id="path14"
         style="fill:#000000;fill-opacity:1;fill-rule:nonzero;stroke:none"
         d="m 88.105,30.34 c 0.165,0 0.36,0 0.356,-0.36 -0.004,-0.382 -0.199,-0.382 -0.348,-0.382 h -6.246 c -0.148,0 -0.344,0 -0.34,0.382 0.004,0.36 0.2,0.36 0.348,0.36 z m 0.055,3.687 c 0.149,0 0.344,0 0.34,-0.386 -0.004,-0.36 -0.199,-0.36 -0.363,-0.36 h -6.235 c -0.144,0 -0.343,0 -0.34,0.36 0.004,0.386 0.204,0.386 0.348,0.386 z" /><path
         id="path16"
         style="fill:#000000;fill-opacity:1;fill-rule:nonzero;stroke:none"
         d="m 73.477,67.598 c 0,-0.637 -0.036,-1.278 -0.313,-1.864 -0.363,-0.773 -1.023,-0.898 -1.348,-0.898 -0.488,0 -1.062,0.211 -1.402,0.949 -0.25,0.551 -0.285,1.176 -0.285,1.813 0,0.597 0.023,1.312 0.359,1.925 0.34,0.637 0.926,0.797 1.313,0.797 0.426,0 1.039,-0.16 1.39,-0.922 0.25,-0.55 0.286,-1.175 0.286,-1.8 z m -1.676,2.55 c -0.313,0 -0.785,-0.203 -0.922,-0.964 -0.09,-0.473 -0.09,-1.211 -0.09,-1.688 0,-0.512 0,-1.035 0.063,-1.461 0.152,-0.949 0.75,-1.027 0.949,-1.027 0.265,0 0.789,0.152 0.937,0.937 0.09,0.453 0.09,1.051 0.09,1.551 0,0.602 0,1.137 -0.09,1.652 -0.125,0.762 -0.574,1 -0.937,1 z" /><path
         id="path18"
         style="fill:#000000;fill-opacity:1;fill-rule:nonzero;stroke:none"
         d="m 121.477,67.598 c 0,-0.637 -0.036,-1.278 -0.313,-1.864 -0.363,-0.773 -1.023,-0.898 -1.348,-0.898 -0.488,0 -1.062,0.211 -1.402,0.949 -0.25,0.551 -0.285,1.176 -0.285,1.813 0,0.597 0.023,1.312 0.359,1.925 0.34,0.637 0.926,0.797 1.313,0.797 0.426,0 1.039,-0.16 1.39,-0.922 0.25,-0.55 0.286,-1.175 0.286,-1.8 z m -1.676,2.55 c -0.313,0 -0.785,-0.203 -0.922,-0.964 -0.09,-0.473 -0.09,-1.211 -0.09,-1.688 0,-0.512 0,-1.035 0.063,-1.461 0.152,-0.949 0.75,-1.027 0.949,-1.027 0.265,0 0.789,0.152 0.937,0.937 0.09,0.453 0.09,1.051 0.09,1.551 0,0.602 0,1.137 -0.09,1.652 -0.125,0.762 -0.574,1 -0.937,1 z" /><g
         id="g20"><path
           id="path22"
           style="fill:none;stroke:#000000;stroke-width:0.44929099;stroke-linecap:butt;stroke-linejoin:miter;stroke-miterlimit:4;stroke-dasharray:none;stroke-opacity:1"
           d="M 71.805,0.262 71.801,63.348" /></g><g
         id="g24"><path
           id="path26"
           style="fill:none;stroke:#000000;stroke-width:0.73275602;stroke-linecap:butt;stroke-linejoin:miter;stroke-miterlimit:4;stroke-dasharray:none;stroke-opacity:1"
           d="M 61.133,0.262 61.129,63.355" /></g><g
         id="g28"><path
           id="path30"
           style="fill:none;stroke:#000000;stroke-width:0.44929099;stroke-linecap:butt;stroke-linejoin:miter;stroke-miterlimit:4;stroke-dasharray:none;stroke-opacity:1"
           d="M 50.465,0.27 50.457,63.363" /></g><g
         id="g32"><path
           id="path34"
           style="fill:#9cde94;fill-opacity:1;fill-rule:nonzero;stroke:#000000;stroke-width:0.14173201;stroke-linecap:butt;stroke-linejoin:miter;stroke-miterlimit:4;stroke-dasharray:none;stroke-opacity:1"
           d="M 73.543,15.535 H 58.305 c -1.641,0 -2.961,0.992 -2.961,2.227 V 26 c 0,1.234 1.32,2.223 2.961,2.223 h 15.238 c 1.641,0 2.961,-0.989 2.961,-2.223 v -8.238 c 0,-1.235 -1.32,-2.227 -2.961,-2.227 z" /></g><path
         id="path36"
         style="fill:#000000;fill-opacity:1;fill-rule:nonzero;stroke:none"
         d="m 54.656,55.199 c -0.07,-0.117 -0.09,-0.144 0.102,-0.336 0.054,-0.054 0.078,-0.078 0.027,-0.129 -0.027,-0.027 -0.051,-0.004 -0.094,0.039 l -0.336,0.332 c -0.066,0.071 -0.07,0.075 -0.05,0.149 l 0.519,2.371 -1.633,-1.234 c -0.066,-0.051 -0.07,-0.047 -0.136,0.019 l -0.348,0.348 c -0.047,0.047 -0.074,0.074 -0.027,0.121 0.031,0.031 0.054,0.008 0.101,-0.039 0.039,-0.035 0.086,-0.074 0.117,-0.106 0.047,-0.035 0.067,-0.046 0.098,-0.015 0.008,0.011 0.012,0.023 0.039,0.062 L 54,58.391 c 0.078,0.125 0.113,0.25 -0.086,0.464 -0.012,0.012 -0.039,0.047 0.004,0.09 0.027,0.024 0.051,0.016 0.07,-0.004 0.078,-0.078 0.157,-0.175 0.246,-0.261 0.082,-0.082 0.184,-0.168 0.266,-0.25 0.012,-0.012 0.047,-0.047 -0.004,-0.098 -0.027,-0.031 -0.055,0 -0.074,0.02 -0.145,0.14 -0.223,0.117 -0.285,0.058 -0.016,-0.015 -0.032,-0.031 -0.051,-0.066 l -1.031,-1.727 0.004,-0.004 1.785,1.352 c 0.039,0.027 0.07,0.051 0.097,0.023 0.028,-0.027 0.016,-0.07 0.012,-0.097 l -0.582,-2.633 0.004,-0.004 1.086,1.816 c 0.074,0.125 0.094,0.149 -0.109,0.352 -0.04,0.039 -0.071,0.066 -0.02,0.113 0.031,0.031 0.059,0.004 0.066,-0.004 0.071,-0.07 0.235,-0.25 0.305,-0.32 0.106,-0.106 0.223,-0.207 0.328,-0.313 0.016,-0.015 0.047,-0.046 -0.004,-0.097 -0.027,-0.028 -0.054,-0.004 -0.101,0.043 -0.09,0.09 -0.164,0.164 -0.207,0.121 -0.012,-0.016 -0.016,-0.02 -0.051,-0.078 z" /><path
         id="path38"
         style="fill:#000000;fill-opacity:1;fill-rule:nonzero;stroke:none"
         d="m 58.227,53.535 c 0.043,-0.043 0.089,-0.094 0.039,-0.144 -0.047,-0.047 -0.094,0 -0.137,0.043 l -1.371,1.371 c -0.047,0.047 -0.09,0.09 -0.043,0.136 0.055,0.051 0.097,0.008 0.14,-0.035 z" /><path
         id="path40"
         style="fill:#000000;fill-opacity:1;fill-rule:nonzero;stroke:none"
         d="m 58.801,50.887 c -0.063,-0.067 -0.067,-0.071 -0.125,-0.008 0.004,0.32 -0.219,0.543 -0.301,0.621 l 0.082,0.082 c 0.051,-0.055 0.195,-0.199 0.262,-0.398 l 1.312,1.316 c 0.094,0.09 0.114,0.125 -0.113,0.352 l -0.078,0.082 0.078,0.078 c 0.078,-0.094 0.297,-0.313 0.402,-0.418 0.098,-0.098 0.321,-0.321 0.418,-0.403 l -0.082,-0.078 -0.078,0.078 c -0.23,0.231 -0.262,0.207 -0.355,0.118 z" /><g
         id="g42"><path
           id="path44"
           style="fill:none;stroke:#000000;stroke-width:0.44929099;stroke-linecap:butt;stroke-linejoin:miter;stroke-miterlimit:4;stroke-dasharray:none;stroke-opacity:1"
           d="m 66.211,49.82 -9.578,9.575" /></g><g
         id="g46"><path
           id="path48"
           style="fill:none;stroke:#000000;stroke-width:0.44929099;stroke-linecap:butt;stroke-linejoin:miter;stroke-miterlimit:4;stroke-dasharray:none;stroke-opacity:1"
           d="M 119.805,0.262 119.801,63.23" /></g><g
         id="g50"><path
           id="path52"
           style="fill:none;stroke:#000000;stroke-width:0.73275602;stroke-linecap:butt;stroke-linejoin:miter;stroke-miterlimit:4;stroke-dasharray:none;stroke-opacity:1"
           d="m 109.133,0.262 -0.004,62.98" /></g><g
         id="g54"><path
           id="path56"
           style="fill:none;stroke:#000000;stroke-width:0.44929099;stroke-linecap:butt;stroke-linejoin:miter;stroke-miterlimit:4;stroke-dasharray:none;stroke-opacity:1"
           d="M 98.465,0.27 98.457,63.25" /></g><g
         id="g58"><path
           id="path60"
           style="fill:#9cde94;fill-opacity:1;fill-rule:nonzero;stroke:#000000;stroke-width:0.14173201;stroke-linecap:butt;stroke-linejoin:miter;stroke-miterlimit:4;stroke-dasharray:none;stroke-opacity:1"
           d="M 111.25,34.207 H 96.012 c -1.641,0 -2.961,0.996 -2.961,2.227 v 8.238 c 0,1.234 1.32,2.226 2.961,2.226 h 15.238 c 1.641,0 2.961,-0.992 2.961,-2.226 v -8.238 c 0,-1.231 -1.32,-2.227 -2.961,-2.227 z" /></g><path
         id="path62"
         style="fill:#000000;fill-opacity:1;fill-rule:nonzero;stroke:none"
         d="m 102.695,55.199 c -0.066,-0.117 -0.086,-0.144 0.102,-0.336 0.058,-0.054 0.082,-0.078 0.031,-0.129 -0.031,-0.027 -0.055,-0.004 -0.098,0.039 l -0.332,0.332 c -0.07,0.071 -0.074,0.075 -0.054,0.149 l 0.523,2.371 -1.633,-1.234 c -0.07,-0.051 -0.074,-0.047 -0.14,0.019 l -0.344,0.348 c -0.051,0.047 -0.078,0.074 -0.031,0.121 0.035,0.031 0.058,0.008 0.105,-0.039 0.035,-0.035 0.082,-0.074 0.114,-0.106 0.05,-0.035 0.07,-0.046 0.101,-0.015 0.008,0.011 0.012,0.023 0.035,0.062 l 0.965,1.61 c 0.082,0.125 0.117,0.25 -0.082,0.464 -0.012,0.012 -0.039,0.047 0.004,0.09 0.023,0.024 0.047,0.016 0.066,-0.004 0.078,-0.078 0.161,-0.175 0.246,-0.261 0.086,-0.082 0.184,-0.168 0.266,-0.25 0.012,-0.012 0.051,-0.047 -0.004,-0.098 -0.027,-0.031 -0.055,0 -0.074,0.02 -0.145,0.14 -0.223,0.117 -0.281,0.058 -0.016,-0.015 -0.032,-0.031 -0.051,-0.066 l -1.035,-1.727 0.004,-0.004 1.789,1.352 c 0.035,0.027 0.066,0.051 0.093,0.023 0.028,-0.027 0.016,-0.07 0.012,-0.097 l -0.578,-2.633 0.004,-0.004 1.086,1.816 c 0.074,0.125 0.09,0.149 -0.113,0.352 -0.039,0.039 -0.067,0.066 -0.02,0.113 0.031,0.031 0.059,0.004 0.067,-0.004 0.074,-0.07 0.234,-0.25 0.308,-0.32 0.102,-0.106 0.223,-0.207 0.324,-0.313 0.016,-0.015 0.047,-0.046 -0.004,-0.097 -0.027,-0.028 -0.05,-0.004 -0.097,0.043 -0.094,0.09 -0.164,0.164 -0.207,0.121 -0.012,-0.016 -0.016,-0.02 -0.055,-0.078 z" /><path
         id="path64"
         style="fill:#000000;fill-opacity:1;fill-rule:nonzero;stroke:none"
         d="m 106.266,53.535 c 0.046,-0.043 0.093,-0.094 0.043,-0.144 -0.051,-0.047 -0.098,0 -0.141,0.043 l -1.371,1.371 c -0.043,0.047 -0.086,0.09 -0.039,0.136 0.051,0.051 0.094,0.008 0.137,-0.035 z" /><path
         id="path66"
         style="fill:#000000;fill-opacity:1;fill-rule:nonzero;stroke:none"
         d="m 106.84,50.887 c -0.063,-0.067 -0.067,-0.071 -0.125,-0.008 0.004,0.32 -0.219,0.543 -0.297,0.621 l 0.078,0.082 c 0.051,-0.055 0.199,-0.199 0.262,-0.398 l 1.316,1.316 c 0.09,0.09 0.11,0.125 -0.117,0.352 l -0.078,0.082 0.078,0.078 c 0.082,-0.094 0.301,-0.313 0.402,-0.418 0.102,-0.098 0.325,-0.321 0.418,-0.403 l -0.078,-0.078 -0.082,0.078 c -0.23,0.231 -0.262,0.207 -0.351,0.118 z" /><g
         id="g68"><path
           id="path70"
           style="fill:none;stroke:#000000;stroke-width:0.44929099;stroke-linecap:butt;stroke-linejoin:miter;stroke-miterlimit:4;stroke-dasharray:none;stroke-opacity:1"
           d="m 113.918,49.82 -9.574,9.575" /></g><g
         id="g72"><path
           id="path74"
           style="fill:#fcb9ff;fill-opacity:1;fill-rule:nonzero;stroke:#000000;stroke-width:0.14173201;stroke-linecap:butt;stroke-linejoin:round;stroke-miterlimit:4;stroke-dasharray:none;stroke-opacity:1"
           d="M 123.602,15.664 123.594,28.141 94.66,28.09 94.672,15.617 Z" /></g><path
         id="path76"
         style="fill:#000000;fill-opacity:1;fill-rule:nonzero;stroke:none"
         d="m 107.242,21.457 h 1.363 c 1.125,0 2.239,-0.828 2.239,-1.715 0,-0.625 -0.528,-1.211 -1.578,-1.211 h -2.575 c -0.148,0 -0.238,0 -0.238,0.149 0,0.101 0.063,0.101 0.227,0.101 0.101,0 0.25,0.012 0.336,0.012 0.14,0.023 0.175,0.039 0.175,0.137 0,0.027 0,0.05 -0.023,0.152 l -1.074,4.273 c -0.078,0.313 -0.09,0.375 -0.727,0.375 -0.125,0 -0.211,0 -0.211,0.149 0,0.101 0.086,0.101 0.11,0.101 0.226,0 0.789,-0.023 1.015,-0.023 0.172,0 0.348,0.012 0.512,0.012 0.176,0 0.348,0.011 0.512,0.011 0.062,0 0.164,0 0.164,-0.164 0,-0.086 -0.078,-0.086 -0.227,-0.086 -0.289,0 -0.512,0 -0.512,-0.136 0,-0.051 0.012,-0.09 0.024,-0.137 z m 0.574,-2.375 c 0.075,-0.277 0.09,-0.301 0.438,-0.301 h 0.762 c 0.664,0 1.089,0.211 1.089,0.762 0,0.312 -0.164,1 -0.476,1.289 -0.399,0.359 -0.875,0.422 -1.223,0.422 h -1.125 z" /><path
         id="path78"
         style="fill:#000000;fill-opacity:1;fill-rule:nonzero;stroke:none"
         d="m 111.695,21.477 c 0,-0.012 0.012,-0.09 0.012,-0.09 0,-0.035 -0.012,-0.086 -0.086,-0.086 -0.113,0 -0.574,0.051 -0.711,0.062 -0.039,0 -0.125,0.012 -0.125,0.125 0,0.074 0.086,0.074 0.149,0.074 0.261,0 0.261,0.051 0.261,0.09 0,0.036 -0.011,0.075 -0.011,0.125 l -0.789,3.149 c -0.036,0.101 -0.036,0.113 -0.036,0.125 0,0.086 0.075,0.176 0.2,0.176 0.148,0 0.211,-0.102 0.25,-0.227 0.011,-0.023 0.25,-1.012 0.273,-1.086 0.402,0.035 0.715,0.176 0.715,0.461 0,0.027 0,0.051 -0.012,0.113 -0.027,0.074 -0.027,0.114 -0.027,0.176 0,0.387 0.324,0.563 0.601,0.563 0.536,0 0.7,-0.84 0.7,-0.852 0,-0.074 -0.063,-0.074 -0.086,-0.074 -0.078,0 -0.09,0.039 -0.114,0.137 -0.062,0.238 -0.214,0.636 -0.488,0.636 -0.148,0 -0.199,-0.136 -0.199,-0.285 0,-0.101 0,-0.113 0.035,-0.25 0.016,-0.027 0.027,-0.113 0.027,-0.176 0,-0.5 -0.664,-0.574 -0.902,-0.586 0.164,-0.101 0.363,-0.289 0.465,-0.375 0.285,-0.265 0.562,-0.527 0.875,-0.527 0.062,0 0.137,0.012 0.187,0.074 -0.238,0.039 -0.289,0.227 -0.289,0.313 0,0.113 0.09,0.203 0.215,0.203 0.16,0 0.324,-0.125 0.324,-0.352 0,-0.187 -0.136,-0.398 -0.425,-0.398 -0.325,0 -0.614,0.234 -0.899,0.5 -0.238,0.211 -0.414,0.387 -0.652,0.484 z" /><g
         id="g80"><path
           id="path82"
           style="fill:#b8deff;fill-opacity:1;fill-rule:nonzero;stroke:#000000;stroke-width:0.14173201;stroke-linecap:butt;stroke-linejoin:miter;stroke-miterlimit:4;stroke-dasharray:none;stroke-opacity:1"
           d="m 50.578,34.23 h 21.11 c 2.273,0 4.101,0.989 4.101,2.215 v 8.215 c 0,1.227 -1.828,2.215 -4.101,2.215 h -21.11 c -2.273,0 -4.101,-0.988 -4.101,-2.215 v -8.215 c 0,-1.226 1.828,-2.215 4.101,-2.215 z" /></g><path
         id="path84"
         style="fill:#000000;fill-opacity:1;fill-rule:nonzero;stroke:none"
         d="M 60.426,39.898 H 60.25 c 0.461,-0.75 0.988,-1.523 1.762,-2.125 0.125,0.137 0.199,0.313 0.199,0.524 0,0.238 -0.098,0.527 -0.324,0.851 -0.188,0.262 -0.461,0.524 -0.785,0.688 -0.102,0.051 -0.215,0.102 -0.313,0.148 -0.09,-0.046 -0.215,-0.086 -0.363,-0.086 z m -0.938,0.176 c -0.25,0.348 -0.488,0.688 -0.726,1.024 -0.574,0.812 -1.41,1.625 -2.086,1.625 -0.528,0 -0.903,-0.149 -0.903,-0.45 0,-0.05 0.016,-0.113 0.039,-0.175 0.063,0.05 0.126,0.062 0.2,0.062 0.215,0 0.437,-0.148 0.437,-0.301 0,-0.199 -0.113,-0.273 -0.261,-0.273 -0.165,0 -0.364,0.102 -0.461,0.238 -0.125,0.188 -0.188,0.336 -0.188,0.473 0,0.414 0.523,0.601 1.098,0.601 0.925,0 2.164,-0.8 2.801,-1.726 0.199,-0.262 0.374,-0.563 0.601,-0.875 0.16,0 0.348,-0.012 0.535,-0.047 0,0.012 0,0.047 -0.012,0.086 -0.023,0.148 -0.21,0.437 -0.398,0.699 l -0.652,0.903 c -0.086,0.109 -0.114,0.234 -0.114,0.335 0,0.137 0.063,0.262 0.153,0.352 0.113,0.137 0.273,0.211 0.461,0.25 0.062,0.035 0.164,0.074 0.261,0.074 0.153,0 0.329,-0.09 0.489,-0.187 0.101,-0.063 0.199,-0.137 0.3,-0.2 0.325,-0.25 0.586,-0.539 0.801,-0.828 0,-0.011 0.012,-0.023 0.012,-0.035 0,-0.027 -0.012,-0.051 -0.039,-0.062 0,0 -0.024,0 -0.035,0 h -0.09 c -0.023,0 -0.035,0 -0.047,0.011 -0.203,0.29 -0.453,0.575 -0.75,0.825 -0.078,0.062 -0.152,0.125 -0.226,0.175 -0.137,0.075 -0.262,0.114 -0.376,0.114 -0.085,0 -0.175,0 -0.25,-0.012 -0.039,-0.039 -0.062,-0.09 -0.074,-0.152 0,-0.012 0,-0.024 0,-0.051 0,-0.149 0.074,-0.336 0.211,-0.535 l 0.602,-0.84 c 0.176,-0.25 0.261,-0.512 0.261,-0.723 0,-0.051 0,-0.101 -0.011,-0.152 -0.012,-0.063 -0.039,-0.125 -0.074,-0.172 0.109,-0.039 0.222,-0.078 0.347,-0.141 0.375,-0.187 0.762,-0.449 0.977,-0.761 0.222,-0.313 0.324,-0.598 0.324,-0.848 0,-0.266 -0.102,-0.488 -0.262,-0.664 -0.039,-0.051 -0.074,-0.074 -0.113,-0.113 l 0.289,-0.188 c 0.023,-0.012 0.023,-0.023 0.023,-0.051 l -0.011,-0.086 c 0,-0.023 -0.051,-0.05 -0.074,-0.05 0,0 -0.016,0 -0.016,0.011 -0.137,0.078 -0.262,0.153 -0.375,0.239 -0.422,-0.274 -1.012,-0.375 -1.66,-0.375 -0.551,0 -1.227,0.164 -1.903,0.511 -0.597,0.313 -1.171,0.766 -1.523,1.25 -0.273,0.391 -0.449,0.789 -0.449,1.125 0,0.051 0,0.09 0.011,0.141 0.051,0.336 0.325,0.563 0.762,0.563 0.238,0 0.528,-0.102 0.789,-0.266 0.285,-0.172 0.535,-0.399 0.711,-0.637 0.313,-0.461 0.676,-0.973 0.676,-1.387 v -0.086 c -0.012,-0.027 -0.039,-0.05 -0.074,-0.05 l -0.125,0.05 c -0.028,0 -0.039,0.024 -0.039,0.047 v 0.051 c 0,0.34 -0.637,0.965 -0.864,1.289 -0.148,0.211 -0.296,0.41 -0.523,0.586 -0.176,0.137 -0.375,0.227 -0.523,0.227 -0.364,0 -0.551,-0.164 -0.579,-0.426 l -0.011,-0.102 c 0,-0.285 0.164,-0.648 0.437,-1.035 0.324,-0.465 0.852,-0.902 1.426,-1.187 0.637,-0.34 1.25,-0.489 1.773,-0.489 0.602,0 1.125,0.114 1.465,0.352 -0.925,0.66 -1.636,1.484 -2.277,2.336 -0.024,0 -0.035,0 -0.063,0.023 -0.023,0.039 -0.035,0.063 -0.035,0.09 z m 0.91,0.012 h 0.028 c -0.114,0.023 -0.215,0.023 -0.313,0.039 0.012,-0.016 0.012,-0.039 0.024,-0.039 z" /><path
         id="path86"
         style="fill:#000000;fill-opacity:1;fill-rule:nonzero;stroke:none"
         d="m 65.039,40.633 c 0.035,-0.164 0.051,-0.176 0.176,-0.188 0.023,0 0.211,0 0.324,0 0.348,0 0.488,0 0.625,0.035 0.25,0.075 0.262,0.239 0.262,0.438 0,0.09 0,0.164 -0.039,0.449 l -0.012,0.063 c 0,0.062 0.039,0.09 0.102,0.09 0.085,0 0.085,-0.051 0.097,-0.137 l 0.153,-1.063 c 0,-0.078 -0.063,-0.078 -0.165,-0.078 h -3.425 c -0.137,0 -0.149,0 -0.188,0.113 l -0.359,0.989 c 0,0.023 -0.028,0.074 -0.028,0.101 0,0.024 0.012,0.075 0.102,0.075 0.074,0 0.074,-0.028 0.113,-0.137 0.325,-0.891 0.512,-0.938 1.36,-0.938 h 0.226 c 0.176,0 0.176,0 0.176,0.047 0,0 0,0.039 -0.027,0.113 l -0.735,2.938 c -0.05,0.199 -0.062,0.262 -0.652,0.262 -0.199,0 -0.25,0 -0.25,0.125 0,0.015 0.012,0.078 0.102,0.078 0.148,0 0.324,-0.016 0.472,-0.016 0.164,0 0.328,-0.012 0.477,-0.012 0.164,0 0.351,0 0.512,0.012 0.152,0 0.312,0.016 0.464,0.016 0.047,0 0.125,0 0.125,-0.125 0,-0.078 -0.05,-0.078 -0.226,-0.078 -0.102,0 -0.211,-0.012 -0.324,-0.012 -0.188,-0.012 -0.2,-0.035 -0.2,-0.098 0,-0.05 0,-0.05 0.024,-0.14 z" /><path
         id="path88"
         style="fill:#000000;fill-opacity:1;fill-rule:nonzero;stroke:none"
         d="m 63.555,18.531 c 0,-0.027 -0.012,-0.09 -0.09,-0.09 -0.024,0 -0.035,0.016 -0.125,0.102 l -0.547,0.613 c -0.078,-0.113 -0.438,-0.715 -1.328,-0.715 -1.785,0 -3.574,1.766 -3.574,3.614 0,1.277 0.886,2.187 2.175,2.187 0.352,0 0.711,-0.074 1,-0.187 0.399,-0.16 0.551,-0.325 0.688,-0.489 0.074,0.204 0.289,0.489 0.363,0.489 0.035,0 0.063,-0.024 0.063,-0.024 0.011,-0.011 0.086,-0.324 0.125,-0.488 l 0.148,-0.613 c 0.039,-0.137 0.074,-0.274 0.113,-0.41 0.086,-0.352 0.086,-0.375 0.551,-0.375 0.035,0 0.125,-0.016 0.125,-0.165 0,-0.062 -0.039,-0.085 -0.101,-0.085 -0.188,0 -0.661,0.023 -0.836,0.023 -0.25,0 -0.875,-0.023 -1.125,-0.023 -0.063,0 -0.164,0 -0.164,0.16 0,0.09 0.062,0.09 0.238,0.09 0.012,0 0.238,0 0.426,0.011 0.211,0.024 0.25,0.051 0.25,0.149 0,0.074 -0.09,0.425 -0.176,0.726 -0.227,0.875 -1.25,0.961 -1.539,0.961 -0.762,0 -1.598,-0.449 -1.598,-1.676 0,-0.25 0.074,-1.562 0.91,-2.597 0.438,-0.539 1.215,-1.028 2,-1.028 0.813,0 1.289,0.614 1.289,1.539 0,0.325 -0.023,0.325 -0.023,0.415 0,0.074 0.086,0.074 0.109,0.074 0.102,0 0.102,-0.012 0.153,-0.164 z" /><path
         id="path90"
         style="fill:#000000;fill-opacity:1;fill-rule:nonzero;stroke:none"
         d="m 65.508,21.562 c 0,-0.011 0.012,-0.085 0.012,-0.085 0,-0.039 -0.012,-0.09 -0.086,-0.09 -0.114,0 -0.575,0.051 -0.715,0.062 -0.035,0 -0.125,0.016 -0.125,0.125 0,0.078 0.09,0.078 0.152,0.078 0.262,0 0.262,0.047 0.262,0.086 0,0.039 -0.012,0.074 -0.012,0.125 l -0.789,3.149 c -0.035,0.101 -0.035,0.113 -0.035,0.125 0,0.09 0.074,0.175 0.199,0.175 0.149,0 0.211,-0.097 0.25,-0.222 0.012,-0.028 0.25,-1.016 0.274,-1.09 0.402,0.039 0.714,0.176 0.714,0.465 0,0.023 0,0.047 -0.015,0.109 -0.024,0.078 -0.024,0.114 -0.024,0.176 0,0.387 0.325,0.562 0.602,0.562 0.535,0 0.699,-0.835 0.699,-0.847 0,-0.078 -0.062,-0.078 -0.09,-0.078 -0.074,0 -0.086,0.039 -0.109,0.14 -0.063,0.235 -0.215,0.637 -0.488,0.637 -0.153,0 -0.2,-0.137 -0.2,-0.289 0,-0.098 0,-0.113 0.036,-0.25 0.011,-0.023 0.027,-0.113 0.027,-0.176 0,-0.5 -0.664,-0.574 -0.902,-0.586 0.164,-0.101 0.363,-0.289 0.464,-0.375 0.286,-0.261 0.563,-0.523 0.875,-0.523 0.063,0 0.137,0.012 0.188,0.074 -0.238,0.035 -0.289,0.223 -0.289,0.313 0,0.113 0.086,0.199 0.211,0.199 0.164,0 0.328,-0.125 0.328,-0.352 0,-0.187 -0.141,-0.398 -0.426,-0.398 -0.324,0 -0.613,0.238 -0.902,0.5 -0.235,0.211 -0.41,0.387 -0.649,0.488 z" /><path
         id="path92"
         style="fill:#000000;fill-opacity:1;fill-rule:nonzero;stroke:none"
         d="m 71.43,24 c 0.09,0 0.226,0 0.226,-0.125 0,-0.148 -0.136,-0.148 -0.226,-0.148 h -3.325 c -0.085,0 -0.222,0 -0.222,0.136 0,0.137 0.125,0.137 0.222,0.137 z" /><path
         id="path94"
         style="fill:#000000;fill-opacity:1;fill-rule:nonzero;stroke:none"
         d="m 74.125,21.715 c 0,-0.153 0,-0.153 -0.164,-0.153 -0.359,0.352 -0.859,0.352 -1.086,0.352 v 0.199 c 0.125,0 0.5,0 0.801,-0.148 v 2.836 c 0,0.187 0,0.261 -0.551,0.261 h -0.211 v 0.2 c 0.098,0 0.785,-0.024 0.984,-0.024 0.176,0 0.875,0.024 1,0.024 v -0.2 h -0.21 c -0.563,0 -0.563,-0.074 -0.563,-0.261 z" /><path
         id="path96"
         style="fill:#000000;fill-opacity:1;fill-rule:nonzero;stroke:none"
         d="m 104.777,37.203 c 0,-0.023 -0.011,-0.086 -0.086,-0.086 -0.023,0 -0.039,0.012 -0.125,0.102 l -0.55,0.609 c -0.075,-0.109 -0.438,-0.711 -1.325,-0.711 -1.789,0 -3.574,1.762 -3.574,3.613 0,1.274 0.887,2.188 2.176,2.188 0.348,0 0.711,-0.074 1,-0.188 0.398,-0.164 0.547,-0.324 0.687,-0.488 0.075,0.199 0.286,0.488 0.36,0.488 0.039,0 0.062,-0.027 0.062,-0.027 0.016,-0.012 0.09,-0.324 0.125,-0.484 l 0.153,-0.614 c 0.035,-0.136 0.074,-0.277 0.113,-0.414 0.086,-0.347 0.086,-0.375 0.547,-0.375 0.039,0 0.125,-0.011 0.125,-0.16 0,-0.062 -0.035,-0.09 -0.098,-0.09 -0.187,0 -0.664,0.028 -0.84,0.028 -0.25,0 -0.875,-0.028 -1.125,-0.028 -0.062,0 -0.16,0 -0.16,0.164 0,0.086 0.063,0.086 0.238,0.086 0.012,0 0.235,0 0.422,0.012 0.215,0.027 0.25,0.051 0.25,0.152 0,0.075 -0.086,0.426 -0.172,0.723 -0.226,0.875 -1.25,0.965 -1.539,0.965 -0.761,0 -1.601,-0.449 -1.601,-1.676 0,-0.25 0.078,-1.562 0.914,-2.601 0.437,-0.536 1.211,-1.024 2,-1.024 0.812,0 1.289,0.613 1.289,1.539 0,0.324 -0.027,0.324 -0.027,0.41 0,0.075 0.089,0.075 0.113,0.075 0.101,0 0.101,-0.012 0.148,-0.161 z" /><path
         id="path98"
         style="fill:#000000;fill-opacity:1;fill-rule:nonzero;stroke:none"
         d="m 106.734,40.238 c 0,-0.011 0.012,-0.09 0.012,-0.09 0,-0.035 -0.012,-0.086 -0.09,-0.086 -0.109,0 -0.574,0.051 -0.711,0.063 -0.039,0 -0.125,0.012 -0.125,0.125 0,0.074 0.086,0.074 0.149,0.074 0.265,0 0.265,0.051 0.265,0.09 0,0.035 -0.015,0.074 -0.015,0.125 l -0.785,3.149 c -0.039,0.101 -0.039,0.113 -0.039,0.124 0,0.086 0.074,0.176 0.199,0.176 0.152,0 0.215,-0.101 0.25,-0.226 0.015,-0.024 0.25,-1.012 0.277,-1.086 0.399,0.035 0.711,0.176 0.711,0.461 0,0.027 0,0.051 -0.012,0.113 -0.023,0.074 -0.023,0.113 -0.023,0.176 0,0.386 0.324,0.562 0.598,0.562 0.539,0 0.699,-0.84 0.699,-0.851 0,-0.075 -0.063,-0.075 -0.086,-0.075 -0.074,0 -0.086,0.04 -0.113,0.137 -0.063,0.239 -0.211,0.637 -0.489,0.637 -0.148,0 -0.199,-0.137 -0.199,-0.285 0,-0.102 0,-0.113 0.039,-0.25 0.012,-0.028 0.024,-0.113 0.024,-0.176 0,-0.5 -0.661,-0.574 -0.899,-0.586 0.16,-0.101 0.363,-0.289 0.461,-0.375 0.289,-0.266 0.563,-0.527 0.875,-0.527 0.063,0 0.137,0.011 0.188,0.074 -0.239,0.039 -0.286,0.227 -0.286,0.312 0,0.114 0.086,0.204 0.211,0.204 0.164,0 0.325,-0.125 0.325,-0.352 0,-0.187 -0.137,-0.398 -0.426,-0.398 -0.324,0 -0.61,0.234 -0.899,0.5 -0.238,0.211 -0.414,0.386 -0.648,0.484 z" /></g></g></svg>