<?xml version="1.0" encoding="UTF-8" standalone="no"?>
<svg
   xmlns:dc="http://purl.org/dc/elements/1.1/"
   xmlns:cc="http://creativecommons.org/ns#"
   xmlns:rdf="http://www.w3.org/1999/02/22-rdf-syntax-ns#"
   xmlns:svg="http://www.w3.org/2000/svg"
   xmlns="http://www.w3.org/2000/svg"
   viewBox="0 0 226.77165 94.110237"
   height="94.110237"
   width="226.77165"
   xml:space="preserve"
   id="svg2"
   version="1.1"><metadata
     id="metadata8"><rdf:RDF><cc:Work
         rdf:about=""><dc:format>image/svg+xml</dc:format><dc:type
           rdf:resource="http://purl.org/dc/dcmitype/StillImage" /></cc:Work></rdf:RDF></metadata><defs
     id="defs6" /><g
     transform="matrix(1.3333333,0,0,1.3333333,0,2.352756e-6)"
     id="g10"><g
       id="g12"><path
         id="path14"
         style="fill:#000000;fill-opacity:1;fill-rule:nonzero;stroke:none"
         d="m 85.824,30.34 c 0.16,0 0.36,0 0.356,-0.36 -0.004,-0.382 -0.2,-0.382 -0.348,-0.382 h -6.25 c -0.144,0 -0.344,0 -0.34,0.382 0.008,0.36 0.203,0.36 0.348,0.36 z m 0.051,3.687 c 0.148,0 0.344,0 0.34,-0.386 -0.004,-0.36 -0.199,-0.36 -0.363,-0.36 h -6.231 c -0.148,0 -0.344,0 -0.34,0.36 0.004,0.386 0.199,0.386 0.348,0.386 z" /><path
         id="path16"
         style="fill:#000000;fill-opacity:1;fill-rule:nonzero;stroke:none"
         d="m 70.625,67.598 c 0,-0.637 -0.035,-1.278 -0.313,-1.864 -0.359,-0.773 -1.023,-0.898 -1.347,-0.898 -0.488,0 -1.063,0.211 -1.403,0.949 -0.25,0.551 -0.285,1.176 -0.285,1.813 0,0.597 0.024,1.312 0.364,1.925 0.336,0.637 0.921,0.797 1.312,0.797 0.422,0 1.035,-0.16 1.387,-0.922 0.25,-0.55 0.285,-1.175 0.285,-1.8 z m -1.672,2.55 c -0.312,0 -0.789,-0.203 -0.926,-0.964 -0.089,-0.473 -0.089,-1.211 -0.089,-1.688 0,-0.512 0,-1.035 0.062,-1.461 0.152,-0.949 0.75,-1.027 0.953,-1.027 0.262,0 0.785,0.152 0.938,0.937 0.086,0.453 0.086,1.051 0.086,1.551 0,0.602 0,1.137 -0.086,1.652 -0.125,0.762 -0.579,1 -0.938,1 z" /><g
         id="g18"><path
           id="path20"
           style="fill:none;stroke:#000000;stroke-width:0.44929099;stroke-linecap:butt;stroke-linejoin:miter;stroke-miterlimit:4;stroke-dasharray:none;stroke-opacity:1"
           d="M 68.953,0.262 68.949,63.348" /></g><g
         id="g22"><path
           id="path24"
           style="fill:none;stroke:#000000;stroke-width:0.73133898;stroke-linecap:butt;stroke-linejoin:miter;stroke-miterlimit:4;stroke-dasharray:none;stroke-opacity:1"
           d="M 58.285,0.262 58.277,63.355" /></g><g
         id="g26"><path
           id="path28"
           style="fill:none;stroke:#000000;stroke-width:0.44929099;stroke-linecap:butt;stroke-linejoin:miter;stroke-miterlimit:4;stroke-dasharray:none;stroke-opacity:1"
           d="M 47.613,0.27 47.605,63.363" /></g><g
         id="g30"><path
           id="path32"
           style="fill:#9cde94;fill-opacity:1;fill-rule:nonzero;stroke:#000000;stroke-width:0.14173201;stroke-linecap:butt;stroke-linejoin:miter;stroke-miterlimit:4;stroke-dasharray:none;stroke-opacity:1"
           d="M 71.574,15.531 H 55.516 c -1.731,0 -3.121,0.996 -3.121,2.227 v 8.238 c 0,1.234 1.39,2.227 3.121,2.227 h 16.058 c 1.731,0 3.121,-0.993 3.121,-2.227 v -8.238 c 0,-1.231 -1.39,-2.227 -3.121,-2.227 z" /></g><path
         id="path34"
         style="fill:#000000;fill-opacity:1;fill-rule:nonzero;stroke:none"
         d="m 51.805,55.199 c -0.067,-0.117 -0.09,-0.144 0.101,-0.336 0.059,-0.054 0.082,-0.078 0.028,-0.129 -0.028,-0.027 -0.051,-0.004 -0.094,0.039 l -0.332,0.332 c -0.07,0.071 -0.074,0.075 -0.055,0.149 l 0.524,2.371 -1.637,-1.234 C 50.273,56.34 50.27,56.344 50.203,56.41 l -0.348,0.348 c -0.046,0.047 -0.074,0.074 -0.027,0.121 0.031,0.031 0.055,0.008 0.106,-0.039 0.035,-0.035 0.082,-0.074 0.113,-0.106 0.047,-0.035 0.066,-0.046 0.101,-0.015 0.008,0.011 0.012,0.023 0.036,0.062 l 0.964,1.61 c 0.079,0.125 0.114,0.25 -0.082,0.464 -0.011,0.012 -0.043,0.047 0.004,0.09 0.024,0.024 0.047,0.016 0.067,-0.004 0.078,-0.078 0.16,-0.175 0.246,-0.261 0.082,-0.082 0.183,-0.168 0.265,-0.25 0.012,-0.012 0.047,-0.047 -0.003,-0.098 -0.028,-0.031 -0.055,0 -0.075,0.02 -0.144,0.14 -0.222,0.117 -0.281,0.058 -0.016,-0.015 -0.035,-0.031 -0.055,-0.066 l -1.031,-1.727 0.004,-0.004 1.789,1.352 c 0.035,0.027 0.066,0.051 0.094,0.023 0.027,-0.027 0.015,-0.07 0.012,-0.097 l -0.579,-2.633 0.004,-0.004 1.082,1.816 c 0.079,0.125 0.094,0.149 -0.109,0.352 -0.039,0.039 -0.066,0.066 -0.02,0.113 0.032,0.031 0.059,0.004 0.067,-0.004 0.07,-0.07 0.234,-0.25 0.305,-0.32 0.105,-0.106 0.222,-0.207 0.328,-0.313 0.015,-0.015 0.047,-0.046 -0.004,-0.097 -0.028,-0.028 -0.051,-0.004 -0.102,0.043 -0.09,0.09 -0.16,0.164 -0.207,0.121 -0.012,-0.016 -0.015,-0.02 -0.051,-0.078 z" /><path
         id="path36"
         style="fill:#000000;fill-opacity:1;fill-rule:nonzero;stroke:none"
         d="m 55.375,53.535 c 0.043,-0.043 0.094,-0.094 0.039,-0.144 -0.047,-0.047 -0.094,0 -0.137,0.043 l -1.371,1.371 c -0.043,0.047 -0.09,0.09 -0.039,0.136 0.051,0.051 0.094,0.008 0.137,-0.035 z" /><path
         id="path38"
         style="fill:#000000;fill-opacity:1;fill-rule:nonzero;stroke:none"
         d="m 55.949,50.887 c -0.062,-0.067 -0.066,-0.071 -0.125,-0.008 0.004,0.32 -0.219,0.543 -0.301,0.621 l 0.082,0.082 c 0.051,-0.055 0.2,-0.199 0.262,-0.398 l 1.317,1.316 c 0.089,0.09 0.109,0.125 -0.118,0.352 l -0.078,0.082 0.078,0.078 c 0.082,-0.094 0.297,-0.313 0.403,-0.418 0.097,-0.098 0.32,-0.321 0.418,-0.403 l -0.082,-0.078 -0.078,0.078 c -0.231,0.231 -0.262,0.207 -0.352,0.118 z" /><g
         id="g40"><path
           id="path42"
           style="fill:none;stroke:#000000;stroke-width:0.44929099;stroke-linecap:butt;stroke-linejoin:miter;stroke-miterlimit:4;stroke-dasharray:none;stroke-opacity:1"
           d="m 63.359,49.82 -9.574,9.575" /></g><g
         id="g44"><path
           id="path46"
           style="fill:#b8deff;fill-opacity:1;fill-rule:nonzero;stroke:#000000;stroke-width:0.14173201;stroke-linecap:butt;stroke-linejoin:miter;stroke-miterlimit:4;stroke-dasharray:none;stroke-opacity:1"
           d="m 47.727,34.23 h 21.109 c 2.273,0 4.102,0.989 4.102,2.215 v 8.215 c 0,1.227 -1.829,2.215 -4.102,2.215 H 47.727 c -2.274,0 -4.102,-0.988 -4.102,-2.215 v -8.215 c 0,-1.226 1.828,-2.215 4.102,-2.215 z" /></g><path
         id="path48"
         style="fill:#000000;fill-opacity:1;fill-rule:nonzero;stroke:none"
         d="m 57.574,39.898 h -0.176 c 0.465,-0.75 0.989,-1.523 1.762,-2.125 0.125,0.137 0.203,0.313 0.203,0.524 0,0.238 -0.101,0.527 -0.328,0.851 -0.187,0.262 -0.461,0.524 -0.785,0.688 -0.102,0.051 -0.215,0.102 -0.312,0.148 -0.09,-0.046 -0.215,-0.086 -0.364,-0.086 z m -0.937,0.176 c -0.25,0.348 -0.489,0.688 -0.727,1.024 -0.574,0.812 -1.41,1.625 -2.086,1.625 -0.523,0 -0.898,-0.149 -0.898,-0.45 0,-0.05 0.012,-0.113 0.035,-0.175 0.062,0.05 0.125,0.062 0.199,0.062 0.215,0 0.438,-0.148 0.438,-0.301 0,-0.199 -0.11,-0.273 -0.262,-0.273 -0.16,0 -0.363,0.102 -0.461,0.238 -0.125,0.188 -0.187,0.336 -0.187,0.473 0,0.414 0.523,0.601 1.097,0.601 0.926,0 2.164,-0.8 2.801,-1.726 0.199,-0.262 0.375,-0.563 0.602,-0.875 0.16,0 0.347,-0.012 0.535,-0.047 0,0.012 0,0.047 -0.012,0.086 -0.023,0.148 -0.211,0.437 -0.399,0.699 l -0.652,0.903 c -0.086,0.109 -0.109,0.234 -0.109,0.335 0,0.137 0.062,0.262 0.148,0.352 0.113,0.137 0.274,0.211 0.461,0.25 0.063,0.035 0.164,0.074 0.266,0.074 0.148,0 0.324,-0.09 0.484,-0.187 0.102,-0.063 0.203,-0.137 0.301,-0.2 0.324,-0.25 0.59,-0.539 0.801,-0.828 0,-0.011 0.011,-0.023 0.011,-0.035 0,-0.027 -0.011,-0.051 -0.035,-0.062 0,0 -0.027,0 -0.039,0 h -0.086 c -0.027,0 -0.039,0 -0.051,0.011 -0.199,0.29 -0.449,0.575 -0.75,0.825 -0.074,0.062 -0.152,0.125 -0.226,0.175 -0.137,0.075 -0.262,0.114 -0.375,0.114 -0.086,0 -0.176,0 -0.25,-0.012 -0.035,-0.039 -0.063,-0.09 -0.074,-0.152 0,-0.012 0,-0.024 0,-0.051 0,-0.149 0.074,-0.336 0.211,-0.535 l 0.601,-0.84 c 0.176,-0.25 0.262,-0.512 0.262,-0.723 0,-0.051 0,-0.101 -0.012,-0.152 -0.011,-0.063 -0.039,-0.125 -0.074,-0.172 0.113,-0.039 0.223,-0.078 0.348,-0.141 0.375,-0.187 0.765,-0.449 0.976,-0.761 0.227,-0.313 0.324,-0.598 0.324,-0.848 0,-0.266 -0.097,-0.488 -0.261,-0.664 -0.039,-0.051 -0.074,-0.074 -0.114,-0.113 l 0.29,-0.188 c 0.023,-0.012 0.023,-0.023 0.023,-0.051 l -0.012,-0.086 c 0,-0.023 -0.051,-0.05 -0.074,-0.05 0,0 -0.012,0 -0.012,0.011 -0.14,0.078 -0.265,0.153 -0.375,0.239 -0.426,-0.274 -1.015,-0.375 -1.664,-0.375 -0.551,0 -1.226,0.164 -1.898,0.511 -0.602,0.313 -1.176,0.766 -1.528,1.25 -0.273,0.391 -0.449,0.789 -0.449,1.125 0,0.051 0,0.09 0.012,0.141 0.051,0.336 0.324,0.563 0.762,0.563 0.238,0 0.527,-0.102 0.789,-0.266 0.289,-0.172 0.539,-0.399 0.711,-0.637 0.312,-0.461 0.675,-0.973 0.675,-1.387 v -0.086 c -0.011,-0.027 -0.035,-0.05 -0.074,-0.05 l -0.125,0.05 c -0.023,0 -0.039,0.024 -0.039,0.047 v 0.051 c 0,0.34 -0.637,0.965 -0.859,1.289 -0.153,0.211 -0.301,0.41 -0.528,0.586 -0.175,0.137 -0.375,0.227 -0.523,0.227 -0.363,0 -0.551,-0.164 -0.574,-0.426 L 53.91,39.984 c 0,-0.285 0.164,-0.648 0.438,-1.035 0.328,-0.465 0.851,-0.902 1.425,-1.187 0.637,-0.34 1.25,-0.489 1.778,-0.489 0.597,0 1.125,0.114 1.461,0.352 -0.926,0.66 -1.637,1.484 -2.274,2.336 -0.027,0 -0.039,0 -0.062,0.023 -0.028,0.039 -0.039,0.063 -0.039,0.09 z m 0.914,0.012 h 0.023 c -0.113,0.023 -0.211,0.023 -0.312,0.039 0.011,-0.016 0.011,-0.039 0.023,-0.039 z" /><path
         id="path50"
         style="fill:#000000;fill-opacity:1;fill-rule:nonzero;stroke:none"
         d="m 62.188,40.633 c 0.039,-0.164 0.05,-0.176 0.175,-0.188 0.024,0 0.211,0 0.325,0 0.351,0 0.488,0 0.624,0.035 0.25,0.075 0.262,0.239 0.262,0.438 0,0.09 0,0.164 -0.035,0.449 l -0.016,0.063 c 0,0.062 0.039,0.09 0.102,0.09 0.086,0 0.086,-0.051 0.102,-0.137 l 0.148,-1.063 c 0,-0.078 -0.063,-0.078 -0.164,-0.078 h -3.422 c -0.141,0 -0.152,0 -0.187,0.113 l -0.364,0.989 c 0,0.023 -0.027,0.074 -0.027,0.101 0,0.024 0.016,0.075 0.101,0.075 0.075,0 0.075,-0.028 0.114,-0.137 0.324,-0.891 0.512,-0.938 1.363,-0.938 h 0.223 c 0.176,0 0.176,0 0.176,0.047 0,0 0,0.039 -0.024,0.113 l -0.738,2.938 c -0.051,0.199 -0.063,0.262 -0.653,0.262 -0.199,0 -0.25,0 -0.25,0.125 0,0.015 0.016,0.078 0.102,0.078 0.148,0 0.324,-0.016 0.477,-0.016 0.16,0 0.324,-0.012 0.472,-0.012 0.164,0 0.352,0 0.512,0.012 0.152,0 0.312,0.016 0.465,0.016 0.051,0 0.125,0 0.125,-0.125 0,-0.078 -0.051,-0.078 -0.227,-0.078 -0.097,0 -0.211,-0.012 -0.324,-0.012 -0.187,-0.012 -0.199,-0.035 -0.199,-0.098 0,-0.05 0,-0.05 0.023,-0.14 z" /><path
         id="path52"
         style="fill:#000000;fill-opacity:1;fill-rule:nonzero;stroke:none"
         d="m 59.555,18.555 c 0,-0.024 -0.012,-0.086 -0.09,-0.086 -0.024,0 -0.035,0.011 -0.125,0.097 l -0.547,0.614 c -0.078,-0.114 -0.438,-0.711 -1.328,-0.711 -1.785,0 -3.574,1.761 -3.574,3.613 0,1.273 0.886,2.188 2.175,2.188 0.352,0 0.711,-0.079 1,-0.188 0.399,-0.164 0.551,-0.328 0.688,-0.488 0.074,0.199 0.289,0.488 0.363,0.488 0.035,0 0.063,-0.027 0.063,-0.027 0.011,-0.012 0.086,-0.325 0.125,-0.489 l 0.148,-0.609 c 0.039,-0.141 0.074,-0.277 0.113,-0.414 0.086,-0.352 0.086,-0.375 0.551,-0.375 0.035,0 0.125,-0.012 0.125,-0.164 0,-0.063 -0.039,-0.086 -0.101,-0.086 -0.188,0 -0.661,0.023 -0.836,0.023 -0.25,0 -0.875,-0.023 -1.125,-0.023 -0.063,0 -0.164,0 -0.164,0.164 0,0.086 0.062,0.086 0.238,0.086 0.012,0 0.238,0 0.426,0.012 0.211,0.027 0.25,0.05 0.25,0.152 0,0.074 -0.09,0.422 -0.176,0.723 -0.227,0.875 -1.25,0.965 -1.539,0.965 -0.762,0 -1.598,-0.454 -1.598,-1.676 0,-0.25 0.074,-1.563 0.91,-2.602 0.438,-0.535 1.215,-1.023 2,-1.023 0.813,0 1.289,0.613 1.289,1.535 0,0.328 -0.023,0.328 -0.023,0.414 0,0.074 0.086,0.074 0.109,0.074 0.102,0 0.102,-0.012 0.153,-0.16 z" /><path
         id="path54"
         style="fill:#000000;fill-opacity:1;fill-rule:nonzero;stroke:none"
         d="m 64.406,22.086 c 0.051,-0.211 0.153,-0.398 0.59,-0.41 0.024,0 0.113,0 0.113,-0.114 0,-0.039 -0.027,-0.085 -0.089,-0.085 -0.176,0 -0.387,0.023 -0.575,0.023 -0.136,0 -0.449,-0.023 -0.586,-0.023 -0.027,0 -0.113,0 -0.113,0.125 0,0.074 0.074,0.074 0.125,0.074 0.262,0.012 0.348,0.097 0.348,0.238 0,0.035 0,0.074 -0.024,0.125 l -0.601,2.438 -1.41,-2.903 c -0.051,-0.097 -0.063,-0.097 -0.2,-0.097 h -0.765 c -0.098,0 -0.172,0 -0.172,0.125 0,0.074 0.062,0.074 0.187,0.074 0.11,0 0.235,0.012 0.348,0.035 l -0.738,2.977 c -0.047,0.21 -0.149,0.386 -0.586,0.398 -0.039,0 -0.113,0 -0.113,0.113 0,0.063 0.039,0.09 0.074,0.09 0.187,0 0.402,-0.027 0.59,-0.027 0.136,0 0.449,0.027 0.586,0.027 0.062,0 0.113,-0.027 0.113,-0.113 0,-0.09 -0.063,-0.09 -0.125,-0.09 -0.352,-0.012 -0.352,-0.16 -0.352,-0.234 0,-0.028 0,-0.051 0.016,-0.141 l 0.723,-2.848 1.625,3.325 c 0.039,0.101 0.062,0.101 0.125,0.101 0.089,0 0.089,-0.016 0.113,-0.113 z" /><path
         id="path56"
         style="fill:#000000;fill-opacity:1;fill-rule:nonzero;stroke:none"
         d="m 69.555,24.023 c 0.086,0 0.226,0 0.226,-0.125 0,-0.148 -0.14,-0.148 -0.226,-0.148 H 66.23 c -0.089,0 -0.226,0 -0.226,0.137 0,0.136 0.125,0.136 0.226,0.136 z" /><path
         id="path58"
         style="fill:#000000;fill-opacity:1;fill-rule:nonzero;stroke:none"
         d="m 73.199,24.273 h -0.187 c -0.016,0.125 -0.078,0.454 -0.153,0.5 -0.035,0.039 -0.461,0.039 -0.55,0.039 h -1.024 c 0.586,-0.511 0.789,-0.675 1.113,-0.937 0.411,-0.324 0.801,-0.676 0.801,-1.199 0,-0.676 -0.59,-1.09 -1.301,-1.09 -0.687,0 -1.164,0.488 -1.164,1 0,0.277 0.239,0.312 0.301,0.312 0.125,0 0.289,-0.097 0.289,-0.296 0,-0.102 -0.039,-0.301 -0.324,-0.301 0.172,-0.387 0.547,-0.512 0.809,-0.512 0.562,0 0.851,0.438 0.851,0.887 0,0.488 -0.351,0.863 -0.523,1.062 l -1.34,1.336 c -0.063,0.051 -0.063,0.063 -0.063,0.215 h 2.301 z" /><path
         id="path60"
         style="fill:#000000;fill-opacity:1;fill-rule:nonzero;stroke:none"
         d="m 47.934,65.047 c 0,-0.199 0,-0.211 -0.188,-0.211 -0.5,0.512 -1.199,0.512 -1.449,0.512 v 0.25 c 0.164,0 0.625,0 1.039,-0.215 v 4.14 c 0,0.286 -0.027,0.375 -0.738,0.375 h -0.25 v 0.25 c 0.273,-0.027 0.961,-0.027 1.285,-0.027 0.312,0 1.015,0 1.289,0.027 v -0.25 h -0.25 c -0.727,0 -0.738,-0.089 -0.738,-0.375 z" /><path
         id="path62"
         style="fill:#000000;fill-opacity:1;fill-rule:nonzero;stroke:none"
         d="m 58.605,65.047 c 0,-0.199 0,-0.211 -0.187,-0.211 -0.5,0.512 -1.199,0.512 -1.449,0.512 v 0.25 c 0.164,0 0.625,0 1.039,-0.215 v 4.14 c 0,0.286 -0.028,0.375 -0.738,0.375 h -0.25 v 0.25 c 0.273,-0.027 0.96,-0.027 1.285,-0.027 0.312,0 1.015,0 1.289,0.027 v -0.25 h -0.25 c -0.727,0 -0.739,-0.089 -0.739,-0.375 z" /><g
         id="g64"><path
           id="path66"
           style="fill:none;stroke:#000000;stroke-width:0.44787401;stroke-linecap:butt;stroke-linejoin:miter;stroke-miterlimit:4;stroke-dasharray:none;stroke-opacity:1"
           d="m 117.391,9.012 -0.004,45.593" /></g><g
         id="g68"><path
           id="path70"
           style="fill:none;stroke:#000000;stroke-width:0.73133898;stroke-linecap:butt;stroke-linejoin:miter;stroke-miterlimit:4;stroke-dasharray:none;stroke-opacity:1"
           d="m 106.723,9.012 -0.008,45.597" /></g><g
         id="g72"><path
           id="path74"
           style="fill:#fcb9ff;fill-opacity:1;fill-rule:nonzero;stroke:#000000;stroke-width:0.14173201;stroke-linecap:butt;stroke-linejoin:round;stroke-miterlimit:4;stroke-dasharray:none;stroke-opacity:1"
           d="M 126.453,25.594 126.445,38.07 97.512,38.02 97.523,25.547 Z" /></g><path
         id="path76"
         style="fill:#000000;fill-opacity:1;fill-rule:nonzero;stroke:none"
         d="m 105.043,31.41 h 1.359 c 1.125,0 2.239,-0.824 2.239,-1.711 0,-0.625 -0.524,-1.215 -1.575,-1.215 h -2.574 c -0.152,0 -0.238,0 -0.238,0.153 0,0.097 0.062,0.097 0.226,0.097 0.098,0 0.25,0.016 0.336,0.016 0.137,0.023 0.176,0.035 0.176,0.137 0,0.023 0,0.051 -0.027,0.148 l -1.074,4.277 c -0.075,0.313 -0.086,0.376 -0.723,0.376 -0.125,0 -0.215,0 -0.215,0.148 0,0.102 0.09,0.102 0.113,0.102 0.227,0 0.789,-0.028 1.012,-0.028 0.176,0 0.352,0.012 0.512,0.012 0.176,0 0.351,0.016 0.515,0.016 0.063,0 0.161,0 0.161,-0.165 0,-0.085 -0.075,-0.085 -0.223,-0.085 -0.289,0 -0.516,0 -0.516,-0.141 0,-0.047 0.016,-0.086 0.028,-0.137 z m 0.574,-2.375 c 0.074,-0.273 0.086,-0.301 0.438,-0.301 h 0.761 c 0.664,0 1.086,0.215 1.086,0.766 0,0.312 -0.16,1 -0.472,1.285 -0.403,0.363 -0.875,0.426 -1.227,0.426 h -1.125 z" /><path
         id="path78"
         style="fill:#000000;fill-opacity:1;fill-rule:nonzero;stroke:none"
         d="m 112.395,31.93 c 0.05,-0.211 0.152,-0.399 0.589,-0.41 0.024,0 0.114,0 0.114,-0.114 0,-0.039 -0.028,-0.086 -0.09,-0.086 -0.176,0 -0.387,0.024 -0.574,0.024 -0.137,0 -0.45,-0.024 -0.586,-0.024 -0.028,0 -0.114,0 -0.114,0.125 0,0.075 0.075,0.075 0.125,0.075 0.262,0.011 0.348,0.097 0.348,0.238 0,0.035 0,0.074 -0.023,0.125 l -0.602,2.437 -1.41,-2.902 c -0.051,-0.098 -0.063,-0.098 -0.199,-0.098 h -0.766 c -0.098,0 -0.172,0 -0.172,0.125 0,0.075 0.063,0.075 0.188,0.075 0.109,0 0.234,0.011 0.347,0.035 l -0.738,2.976 c -0.047,0.211 -0.148,0.387 -0.586,0.399 -0.039,0 -0.113,0 -0.113,0.113 0,0.062 0.039,0.09 0.074,0.09 0.188,0 0.402,-0.028 0.59,-0.028 0.137,0 0.449,0.028 0.586,0.028 0.062,0 0.113,-0.028 0.113,-0.113 0,-0.09 -0.062,-0.09 -0.125,-0.09 -0.351,-0.012 -0.351,-0.16 -0.351,-0.235 0,-0.027 0,-0.05 0.015,-0.14 l 0.723,-2.848 1.625,3.324 c 0.039,0.102 0.062,0.102 0.125,0.102 0.09,0 0.09,-0.016 0.113,-0.113 z" /><path
         id="path80"
         style="fill:#000000;fill-opacity:1;fill-rule:nonzero;stroke:none"
         d="m 117.543,33.867 c 0.086,0 0.227,0 0.227,-0.125 0,-0.148 -0.141,-0.148 -0.227,-0.148 h -3.324 c -0.09,0 -0.227,0 -0.227,0.136 0,0.137 0.125,0.137 0.227,0.137 z" /><path
         id="path82"
         style="fill:#000000;fill-opacity:1;fill-rule:nonzero;stroke:none"
         d="m 120.234,31.582 c 0,-0.152 0,-0.152 -0.16,-0.152 -0.363,0.351 -0.863,0.351 -1.09,0.351 v 0.199 c 0.125,0 0.5,0 0.801,-0.148 v 2.836 c 0,0.187 0,0.262 -0.551,0.262 h -0.211 v 0.203 c 0.102,0 0.789,-0.028 0.989,-0.028 0.176,0 0.875,0.028 1,0.028 V 34.93 h -0.215 c -0.563,0 -0.563,-0.075 -0.563,-0.262 z" /><g
         id="g84"><path
           id="path86"
           style="fill:none;stroke:#000000;stroke-width:0.44929099;stroke-linecap:butt;stroke-linejoin:miter;stroke-miterlimit:4;stroke-dasharray:none;stroke-opacity:1"
           d="m 111.797,41.074 -9.574,9.578" /></g><path
         id="path88"
         style="fill:#000000;fill-opacity:1;fill-rule:nonzero;stroke:none"
         d="m 104.32,44.258 c -0.066,-0.113 -0.086,-0.141 0.106,-0.332 0.054,-0.055 0.078,-0.078 0.027,-0.133 -0.027,-0.027 -0.051,-0.004 -0.098,0.043 l -0.332,0.332 c -0.066,0.066 -0.07,0.07 -0.05,0.148 l 0.519,2.372 -1.633,-1.235 c -0.066,-0.055 -0.07,-0.051 -0.14,0.02 l -0.344,0.343 c -0.047,0.047 -0.078,0.075 -0.027,0.125 0.031,0.032 0.054,0.008 0.101,-0.039 0.035,-0.039 0.086,-0.078 0.117,-0.109 0.047,-0.031 0.067,-0.043 0.098,-0.012 0.008,0.008 0.012,0.02 0.035,0.059 l 0.965,1.609 c 0.082,0.129 0.117,0.25 -0.082,0.465 -0.012,0.012 -0.039,0.051 0.004,0.094 0.023,0.023 0.047,0.015 0.066,-0.004 0.082,-0.082 0.16,-0.176 0.246,-0.262 0.086,-0.086 0.184,-0.168 0.27,-0.254 0.012,-0.011 0.047,-0.047 -0.004,-0.097 -0.031,-0.028 -0.059,0 -0.078,0.019 -0.141,0.145 -0.223,0.121 -0.281,0.059 -0.016,-0.016 -0.032,-0.031 -0.051,-0.067 l -1.035,-1.722 0.004,-0.004 1.789,1.347 c 0.035,0.032 0.066,0.055 0.097,0.028 0.028,-0.031 0.016,-0.074 0.012,-0.102 l -0.582,-2.629 0.004,-0.004 1.086,1.817 c 0.074,0.121 0.09,0.144 -0.113,0.347 -0.039,0.04 -0.067,0.067 -0.02,0.118 0.031,0.031 0.063,0.004 0.07,-0.004 0.071,-0.074 0.235,-0.254 0.305,-0.324 0.102,-0.102 0.223,-0.208 0.324,-0.309 0.016,-0.016 0.051,-0.047 -0.004,-0.102 -0.027,-0.027 -0.05,-0.004 -0.097,0.047 -0.094,0.09 -0.164,0.16 -0.207,0.117 -0.012,-0.011 -0.016,-0.015 -0.051,-0.074 z" /><path
         id="path90"
         style="fill:#000000;fill-opacity:1;fill-rule:nonzero;stroke:none"
         d="m 107.043,56.102 c 0,-0.2 0,-0.215 -0.188,-0.215 -0.5,0.515 -1.199,0.515 -1.449,0.515 v 0.25 c 0.164,0 0.625,0 1.039,-0.214 v 4.136 c 0,0.289 -0.027,0.375 -0.738,0.375 h -0.25 v 0.25 c 0.273,-0.023 0.961,-0.023 1.285,-0.023 0.313,0 1.016,0 1.289,0.023 v -0.25 h -0.25 c -0.726,0 -0.738,-0.086 -0.738,-0.375 z" /><path
         id="path92"
         style="fill:#000000;fill-opacity:1;fill-rule:nonzero;stroke:none"
         d="m 119.062,58.562 c 0,-0.636 -0.035,-1.273 -0.312,-1.863 -0.359,-0.773 -1.023,-0.898 -1.348,-0.898 -0.488,0 -1.062,0.211 -1.402,0.949 -0.25,0.551 -0.285,1.176 -0.285,1.812 0,0.602 0.023,1.313 0.363,1.926 0.336,0.637 0.922,0.801 1.313,0.801 0.421,0 1.035,-0.164 1.386,-0.926 0.25,-0.551 0.285,-1.175 0.285,-1.801 z m -1.671,2.551 c -0.313,0 -0.789,-0.199 -0.926,-0.961 -0.09,-0.476 -0.09,-1.214 -0.09,-1.687 0,-0.516 0,-1.039 0.063,-1.465 0.152,-0.949 0.75,-1.023 0.953,-1.023 0.261,0 0.785,0.148 0.937,0.937 0.086,0.449 0.086,1.051 0.086,1.551 0,0.597 0,1.137 -0.086,1.648 -0.125,0.762 -0.578,1 -0.937,1 z" /><path
         id="path94"
         style="fill:#000000;fill-opacity:1;fill-rule:nonzero;stroke:none"
         d="m 94.32,29.742 c 0.012,-0.035 0.024,-0.086 0.024,-0.137 0,-0.136 -0.086,-0.21 -0.223,-0.21 -0.078,0 -0.301,0.046 -0.328,0.335 -0.148,-0.289 -0.422,-0.5 -0.75,-0.5 -0.898,0 -1.887,1.114 -1.887,2.262 0,0.789 0.477,1.262 1.051,1.262 0.477,0 0.852,-0.375 0.926,-0.461 l 0.012,0.012 c -0.165,0.699 -0.262,1.039 -0.262,1.05 -0.039,0.075 -0.301,0.864 -1.153,0.864 -0.148,0 -0.41,-0.012 -0.636,-0.09 0.238,-0.063 0.324,-0.274 0.324,-0.41 0,-0.125 -0.086,-0.278 -0.297,-0.278 -0.176,0 -0.426,0.141 -0.426,0.465 0,0.324 0.285,0.489 1.051,0.489 1,0 1.574,-0.625 1.699,-1.102 z m -1.027,1.988 c -0.047,0.211 -0.234,0.415 -0.41,0.563 -0.164,0.137 -0.414,0.289 -0.653,0.289 -0.398,0 -0.511,-0.414 -0.511,-0.738 0,-0.375 0.226,-1.324 0.449,-1.727 0.215,-0.387 0.551,-0.711 0.891,-0.711 0.523,0 0.636,0.649 0.636,0.688 0,0.035 -0.011,0.086 -0.027,0.113 z" /><path
         id="path96"
         style="fill:#000000;fill-opacity:1;fill-rule:nonzero;stroke:none"
         d="m 96.312,30.754 c 0,-0.223 -0.187,-0.41 -0.414,-0.41 -0.238,0 -0.425,0.187 -0.425,0.41 0,0.238 0.187,0.426 0.425,0.426 0.227,0 0.414,-0.188 0.414,-0.426 z" /></g></g></svg>