<?xml version="1.0" encoding="UTF-8" standalone="no"?>
<svg
   xmlns:dc="http://purl.org/dc/elements/1.1/"
   xmlns:cc="http://creativecommons.org/ns#"
   xmlns:rdf="http://www.w3.org/1999/02/22-rdf-syntax-ns#"
   xmlns:svg="http://www.w3.org/2000/svg"
   xmlns="http://www.w3.org/2000/svg"
   viewBox="0 0 226.77165 97.889763"
   height="97.889763"
   width="226.77165"
   xml:space="preserve"
   id="svg2"
   version="1.1"><metadata
     id="metadata8"><rdf:RDF><cc:Work
         rdf:about=""><dc:format>image/svg+xml</dc:format><dc:type
           rdf:resource="http://purl.org/dc/dcmitype/StillImage" /></cc:Work></rdf:RDF></metadata><defs
     id="defs6" /><g
     transform="matrix(1.3333333,0,0,1.3333333,0,2.447244e-6)"
     id="g10"><g
       id="g12"><g
         id="g14"><path
           id="path16"
           style="fill:none;stroke:#000000;stroke-width:0.44787401;stroke-linecap:butt;stroke-linejoin:miter;stroke-miterlimit:4;stroke-dasharray:none;stroke-opacity:1"
           d="M 98.102,45.613 98.094,63.188" /></g><g
         id="g18"><path
           id="path20"
           style="fill:none;stroke:#000000;stroke-width:0.44787401;stroke-linecap:butt;stroke-linejoin:miter;stroke-miterlimit:4;stroke-dasharray:none;stroke-opacity:1"
           d="m 114.109,0.203 -0.007,36.981" /></g><g
         id="g22"><path
           id="path24"
           style="fill:none;stroke:#000000;stroke-width:0.44787401;stroke-linecap:butt;stroke-linejoin:miter;stroke-miterlimit:4;stroke-dasharray:none;stroke-opacity:1"
           d="M 103.438,0.211 103.43,38.43" /></g><g
         id="g26"><path
           id="path28"
           style="fill:#fcb9ff;fill-opacity:1;fill-rule:nonzero;stroke:#000000;stroke-width:0.14173201;stroke-linecap:butt;stroke-linejoin:round;stroke-miterlimit:4;stroke-dasharray:none;stroke-opacity:1"
           d="M 118.562,15.605 118.555,28.078 98.977,28.027 98.984,15.559 Z" /></g><g
         id="g30"><path
           id="path32"
           style="fill:none;stroke:#000000;stroke-width:0.44787401;stroke-linecap:butt;stroke-linejoin:miter;stroke-miterlimit:4;stroke-dasharray:none;stroke-opacity:1"
           d="m 105.215,41.223 -0.004,21.949" /></g><g
         id="g34"><path
           id="path36"
           style="fill:none;stroke:#000000;stroke-width:0.44787401;stroke-linecap:butt;stroke-linejoin:miter;stroke-miterlimit:4;stroke-dasharray:none;stroke-opacity:1"
           d="m 112.328,41.223 -0.004,21.949" /></g><path
         id="path38"
         style="fill:#000000;fill-opacity:1;fill-rule:nonzero;stroke:none"
         d="m 87.746,30.281 c 0.16,0 0.359,0 0.356,-0.359 -0.004,-0.383 -0.2,-0.383 -0.348,-0.383 h -6.25 c -0.145,0 -0.344,0 -0.34,0.383 0.004,0.359 0.203,0.359 0.348,0.359 z m 0.051,3.684 c 0.148,0 0.344,0 0.34,-0.383 -0.004,-0.359 -0.199,-0.359 -0.364,-0.359 h -6.23 c -0.148,0 -0.344,0 -0.34,0.359 0.004,0.383 0.199,0.383 0.348,0.383 z" /><path
         id="path40"
         style="fill:#000000;fill-opacity:1;fill-rule:nonzero;stroke:none"
         d="m 73.113,67.539 c 0,-0.641 -0.035,-1.277 -0.312,-1.863 -0.36,-0.778 -1.024,-0.903 -1.348,-0.903 -0.488,0 -1.062,0.215 -1.402,0.954 -0.25,0.546 -0.285,1.171 -0.285,1.812 0,0.598 0.023,1.313 0.363,1.922 0.336,0.641 0.922,0.801 1.312,0.801 0.422,0 1.036,-0.16 1.387,-0.926 0.25,-0.547 0.285,-1.172 0.285,-1.797 z m -1.672,2.547 c -0.312,0 -0.789,-0.199 -0.925,-0.961 -0.09,-0.477 -0.09,-1.211 -0.09,-1.687 0,-0.512 0,-1.04 0.062,-1.461 0.153,-0.954 0.75,-1.028 0.953,-1.028 0.262,0 0.786,0.153 0.938,0.938 0.086,0.449 0.086,1.051 0.086,1.551 0,0.601 0,1.136 -0.086,1.648 -0.125,0.766 -0.578,1 -0.938,1 z" /><g
         id="g42"><path
           id="path44"
           style="fill:none;stroke:#000000;stroke-width:0.44787401;stroke-linecap:butt;stroke-linejoin:miter;stroke-miterlimit:4;stroke-dasharray:none;stroke-opacity:1"
           d="M 71.441,24.336 71.438,63.285" /></g><g
         id="g46"><path
           id="path48"
           style="fill:none;stroke:#000000;stroke-width:0.73133898;stroke-linecap:butt;stroke-linejoin:miter;stroke-miterlimit:4;stroke-dasharray:none;stroke-opacity:1"
           d="M 60.773,21.719 60.766,63.293" /></g><g
         id="g50"><path
           id="path52"
           style="fill:none;stroke:#000000;stroke-width:0.44929099;stroke-linecap:butt;stroke-linejoin:miter;stroke-miterlimit:4;stroke-dasharray:none;stroke-opacity:1"
           d="M 50.102,0.211 50.094,63.305" /></g><g
         id="g54"><path
           id="path56"
           style="fill:none;stroke:#000000;stroke-width:0.44787401;stroke-linecap:butt;stroke-linejoin:miter;stroke-miterlimit:4;stroke-dasharray:none;stroke-opacity:1"
           d="M 65.562,0.211 65.559,16.34" /></g><g
         id="g58"><path
           id="path60"
           style="fill:#9cde94;fill-opacity:1;fill-rule:nonzero;stroke:#000000;stroke-width:0.14173201;stroke-linecap:butt;stroke-linejoin:miter;stroke-miterlimit:4;stroke-dasharray:none;stroke-opacity:1"
           d="M 73.18,15.473 H 57.941 c -1.64,0 -2.961,0.996 -2.961,2.226 v 8.239 c 0,1.234 1.321,2.226 2.961,2.226 H 73.18 c 1.64,0 2.961,-0.992 2.961,-2.226 v -8.239 c 0,-1.23 -1.321,-2.226 -2.961,-2.226 z" /></g><path
         id="path62"
         style="fill:#000000;fill-opacity:1;fill-rule:nonzero;stroke:none"
         d="m 54.293,55.141 c -0.066,-0.118 -0.086,-0.145 0.102,-0.336 0.058,-0.055 0.082,-0.078 0.031,-0.129 -0.031,-0.031 -0.055,-0.004 -0.098,0.039 l -0.332,0.332 c -0.07,0.066 -0.074,0.07 -0.055,0.148 l 0.524,2.371 -1.633,-1.234 c -0.07,-0.051 -0.074,-0.047 -0.141,0.02 l -0.347,0.343 c -0.047,0.051 -0.074,0.078 -0.028,0.125 0.032,0.032 0.059,0.008 0.106,-0.039 0.035,-0.035 0.082,-0.078 0.113,-0.109 0.047,-0.031 0.07,-0.043 0.102,-0.012 0.008,0.008 0.011,0.02 0.035,0.059 l 0.965,1.609 c 0.078,0.129 0.117,0.254 -0.082,0.465 -0.012,0.016 -0.039,0.051 0.004,0.094 0.023,0.023 0.046,0.015 0.066,-0.004 0.078,-0.078 0.16,-0.176 0.246,-0.262 0.082,-0.086 0.184,-0.168 0.266,-0.25 0.011,-0.012 0.047,-0.051 -0.004,-0.101 -0.028,-0.028 -0.055,0 -0.074,0.019 -0.145,0.145 -0.223,0.121 -0.282,0.063 -0.015,-0.02 -0.031,-0.036 -0.054,-0.071 l -1.032,-1.722 0.004,-0.004 1.789,1.351 c 0.036,0.028 0.067,0.051 0.094,0.024 0.027,-0.028 0.016,-0.075 0.012,-0.102 l -0.578,-2.629 0.004,-0.004 1.082,1.817 c 0.078,0.121 0.093,0.144 -0.11,0.347 -0.039,0.039 -0.066,0.071 -0.019,0.118 0.031,0.031 0.058,0.003 0.066,-0.004 0.07,-0.075 0.235,-0.25 0.309,-0.325 0.101,-0.101 0.218,-0.207 0.324,-0.308 0.016,-0.016 0.047,-0.047 -0.004,-0.098 -0.027,-0.031 -0.051,-0.004 -0.102,0.043 -0.089,0.09 -0.16,0.16 -0.203,0.117 -0.011,-0.011 -0.015,-0.015 -0.054,-0.074 z" /><path
         id="path64"
         style="fill:#000000;fill-opacity:1;fill-rule:nonzero;stroke:none"
         d="m 57.863,53.473 c 0.047,-0.043 0.094,-0.09 0.043,-0.141 -0.051,-0.047 -0.097,0 -0.14,0.043 l -1.371,1.371 c -0.043,0.043 -0.086,0.086 -0.04,0.137 0.051,0.051 0.094,0.008 0.137,-0.039 z" /><path
         id="path66"
         style="fill:#000000;fill-opacity:1;fill-rule:nonzero;stroke:none"
         d="m 58.438,50.824 c -0.063,-0.062 -0.067,-0.066 -0.126,-0.008 0.004,0.325 -0.218,0.547 -0.296,0.625 l 0.078,0.079 c 0.051,-0.051 0.199,-0.196 0.261,-0.395 l 1.317,1.313 c 0.09,0.093 0.109,0.128 -0.117,0.355 l -0.078,0.078 0.078,0.082 c 0.082,-0.098 0.3,-0.316 0.402,-0.418 0.098,-0.101 0.32,-0.324 0.418,-0.402 l -0.078,-0.078 -0.082,0.078 c -0.231,0.23 -0.262,0.207 -0.352,0.117 z" /><g
         id="g68"><path
           id="path70"
           style="fill:none;stroke:#000000;stroke-width:0.44929099;stroke-linecap:butt;stroke-linejoin:miter;stroke-miterlimit:4;stroke-dasharray:none;stroke-opacity:1"
           d="m 65.848,49.758 -9.575,9.578" /></g><g
         id="g72"><path
           id="path74"
           style="fill:none;stroke:#000000;stroke-width:0.44787401;stroke-linecap:butt;stroke-linejoin:miter;stroke-miterlimit:4;stroke-dasharray:none;stroke-opacity:1"
           d="m 119.441,41.223 -0.003,21.949" /></g><g
         id="g76"><path
           id="path78"
           style="fill:#9cde94;fill-opacity:1;fill-rule:nonzero;stroke:#000000;stroke-width:0.14173201;stroke-linecap:butt;stroke-linejoin:miter;stroke-miterlimit:4;stroke-dasharray:none;stroke-opacity:1"
           d="M 119.715,34.148 H 97.828 c -2.359,0 -4.254,0.993 -4.254,2.227 v 8.238 c 0,1.235 1.895,2.223 4.254,2.223 h 21.887 c 2.355,0 4.25,-0.988 4.25,-2.223 v -8.238 c 0,-1.234 -1.895,-2.227 -4.25,-2.227 z" /></g><g
         id="g80"><path
           id="path82"
           style="fill:#b8deff;fill-opacity:1;fill-rule:nonzero;stroke:#000000;stroke-width:0.14173201;stroke-linecap:butt;stroke-linejoin:miter;stroke-miterlimit:4;stroke-dasharray:none;stroke-opacity:1"
           d="m 50.215,34.168 h 21.109 c 2.274,0 4.102,0.992 4.102,2.219 v 8.211 c 0,1.23 -1.828,2.218 -4.102,2.218 H 50.215 c -2.274,0 -4.102,-0.988 -4.102,-2.218 v -8.211 c 0,-1.227 1.828,-2.219 4.102,-2.219 z" /></g><path
         id="path84"
         style="fill:#000000;fill-opacity:1;fill-rule:nonzero;stroke:none"
         d="m 60.062,39.84 h -0.175 c 0.465,-0.75 0.988,-1.528 1.765,-2.125 0.125,0.137 0.2,0.312 0.2,0.523 0,0.239 -0.102,0.524 -0.325,0.852 -0.187,0.262 -0.465,0.523 -0.789,0.687 -0.101,0.047 -0.211,0.098 -0.312,0.149 C 60.34,39.875 60.215,39.84 60.062,39.84 Z m -0.937,0.172 c -0.25,0.351 -0.488,0.687 -0.723,1.027 -0.578,0.813 -1.414,1.625 -2.09,1.625 -0.523,0 -0.898,-0.152 -0.898,-0.449 0,-0.051 0.012,-0.113 0.035,-0.176 0.063,0.051 0.125,0.063 0.203,0.063 0.211,0 0.438,-0.153 0.438,-0.301 0,-0.199 -0.113,-0.274 -0.266,-0.274 -0.16,0 -0.359,0.098 -0.461,0.235 -0.125,0.187 -0.187,0.34 -0.187,0.476 0,0.414 0.523,0.602 1.101,0.602 0.922,0 2.161,-0.801 2.797,-1.727 0.203,-0.261 0.375,-0.562 0.602,-0.875 0.164,0 0.351,-0.011 0.539,-0.05 0,0.011 0,0.05 -0.016,0.089 -0.023,0.149 -0.211,0.438 -0.398,0.7 l -0.649,0.898 c -0.09,0.113 -0.113,0.238 -0.113,0.34 0,0.137 0.063,0.262 0.149,0.347 0.113,0.137 0.277,0.215 0.464,0.25 0.063,0.04 0.16,0.075 0.262,0.075 0.148,0 0.324,-0.086 0.488,-0.188 0.098,-0.062 0.2,-0.137 0.297,-0.199 0.328,-0.25 0.59,-0.535 0.801,-0.824 0,-0.012 0.012,-0.024 0.012,-0.039 0,-0.024 -0.012,-0.047 -0.035,-0.063 0,0 -0.028,0 -0.039,0 h -0.086 c -0.028,0 -0.04,0 -0.051,0.016 -0.199,0.285 -0.449,0.574 -0.75,0.824 -0.074,0.063 -0.149,0.125 -0.227,0.176 -0.136,0.074 -0.262,0.109 -0.375,0.109 -0.086,0 -0.172,0 -0.25,-0.011 -0.035,-0.036 -0.062,-0.086 -0.074,-0.149 0,-0.012 0,-0.027 0,-0.051 0,-0.148 0.074,-0.336 0.215,-0.539 l 0.598,-0.836 c 0.175,-0.25 0.261,-0.511 0.261,-0.726 0,-0.047 0,-0.098 -0.011,-0.149 -0.012,-0.062 -0.036,-0.125 -0.075,-0.176 0.114,-0.035 0.227,-0.074 0.352,-0.136 0.375,-0.188 0.762,-0.449 0.973,-0.762 0.226,-0.312 0.324,-0.602 0.324,-0.852 0,-0.261 -0.098,-0.488 -0.262,-0.66 -0.035,-0.05 -0.074,-0.078 -0.113,-0.113 l 0.289,-0.187 c 0.023,-0.012 0.023,-0.028 0.023,-0.051 l -0.011,-0.086 c 0,-0.027 -0.051,-0.051 -0.075,-0.051 0,0 -0.011,0 -0.011,0.012 -0.137,0.074 -0.262,0.148 -0.375,0.238 -0.426,-0.277 -1.012,-0.375 -1.665,-0.375 -0.55,0 -1.222,0.16 -1.898,0.512 -0.602,0.312 -1.176,0.761 -1.527,1.25 -0.274,0.387 -0.449,0.789 -0.449,1.125 0,0.051 0,0.086 0.011,0.136 0.051,0.34 0.328,0.563 0.766,0.563 0.234,0 0.523,-0.098 0.785,-0.262 0.289,-0.175 0.539,-0.398 0.715,-0.636 0.312,-0.465 0.672,-0.977 0.672,-1.387 v -0.09 c -0.012,-0.023 -0.035,-0.051 -0.075,-0.051 l -0.124,0.051 c -0.024,0 -0.036,0.027 -0.036,0.051 v 0.051 c 0,0.336 -0.64,0.96 -0.863,1.285 -0.152,0.215 -0.301,0.414 -0.527,0.59 -0.172,0.136 -0.375,0.222 -0.524,0.222 -0.363,0 -0.55,-0.16 -0.574,-0.422 l -0.012,-0.101 c 0,-0.289 0.16,-0.649 0.438,-1.039 0.324,-0.461 0.848,-0.899 1.422,-1.188 0.64,-0.336 1.25,-0.484 1.777,-0.484 0.598,0 1.125,0.109 1.461,0.347 -0.926,0.665 -1.637,1.489 -2.273,2.34 -0.028,0 -0.039,0 -0.063,0.024 -0.027,0.039 -0.039,0.062 -0.039,0.086 z m 0.914,0.015 h 0.023 c -0.113,0.024 -0.21,0.024 -0.312,0.035 0.012,-0.011 0.012,-0.035 0.027,-0.035 z" /><path
         id="path86"
         style="fill:#000000;fill-opacity:1;fill-rule:nonzero;stroke:none"
         d="m 64.676,40.57 c 0.039,-0.16 0.051,-0.175 0.176,-0.187 0.023,0 0.21,0 0.324,0 0.351,0 0.488,0 0.625,0.039 0.25,0.074 0.261,0.238 0.261,0.437 0,0.086 0,0.161 -0.035,0.45 l -0.015,0.062 c 0,0.063 0.039,0.086 0.101,0.086 0.086,0 0.086,-0.047 0.102,-0.137 l 0.148,-1.062 c 0,-0.074 -0.062,-0.074 -0.164,-0.074 h -3.422 c -0.14,0 -0.152,0 -0.187,0.113 l -0.363,0.988 c 0,0.024 -0.028,0.074 -0.028,0.098 0,0.027 0.016,0.074 0.102,0.074 0.074,0 0.074,-0.023 0.113,-0.137 0.324,-0.886 0.512,-0.937 1.363,-0.937 H 64 c 0.176,0 0.176,0 0.176,0.051 0,0 0,0.039 -0.024,0.113 l -0.738,2.937 c -0.051,0.2 -0.062,0.262 -0.652,0.262 -0.2,0 -0.25,0 -0.25,0.125 0,0.012 0.015,0.074 0.101,0.074 0.149,0 0.325,-0.011 0.477,-0.011 0.16,0 0.324,-0.012 0.472,-0.012 0.165,0 0.352,0 0.512,0.012 0.153,0 0.313,0.011 0.465,0.011 0.051,0 0.125,0 0.125,-0.125 0,-0.074 -0.051,-0.074 -0.226,-0.074 -0.098,0 -0.211,-0.012 -0.325,-0.012 -0.187,-0.011 -0.199,-0.039 -0.199,-0.101 0,-0.051 0,-0.051 0.024,-0.137 z" /><path
         id="path88"
         style="fill:#000000;fill-opacity:1;fill-rule:nonzero;stroke:none"
         d="m 67.324,18.438 c 0,-0.024 -0.012,-0.086 -0.086,-0.086 -0.027,0 -0.039,0.011 -0.125,0.101 l -0.551,0.609 c -0.074,-0.109 -0.437,-0.71 -1.324,-0.71 -1.789,0 -3.574,1.761 -3.574,3.613 0,1.273 0.887,2.187 2.172,2.187 0.352,0 0.715,-0.074 1,-0.187 0.402,-0.164 0.551,-0.324 0.687,-0.488 0.079,0.199 0.289,0.488 0.364,0.488 0.039,0 0.062,-0.027 0.062,-0.027 0.012,-0.012 0.09,-0.325 0.125,-0.485 l 0.153,-0.613 c 0.035,-0.137 0.074,-0.278 0.109,-0.414 0.09,-0.348 0.09,-0.375 0.551,-0.375 0.039,0 0.125,-0.012 0.125,-0.16 0,-0.063 -0.035,-0.09 -0.098,-0.09 -0.187,0 -0.664,0.027 -0.84,0.027 -0.25,0 -0.875,-0.027 -1.125,-0.027 -0.062,0 -0.16,0 -0.16,0.164 0,0.086 0.063,0.086 0.234,0.086 0.016,0 0.239,0 0.426,0.011 0.215,0.028 0.25,0.051 0.25,0.153 0,0.074 -0.086,0.426 -0.176,0.723 -0.222,0.874 -1.25,0.964 -1.535,0.964 -0.761,0 -1.601,-0.449 -1.601,-1.675 0,-0.25 0.074,-1.563 0.914,-2.602 0.437,-0.535 1.211,-1.023 2,-1.023 0.812,0 1.285,0.613 1.285,1.539 0,0.324 -0.024,0.324 -0.024,0.41 0,0.074 0.086,0.074 0.114,0.074 0.097,0 0.097,-0.012 0.148,-0.16 z" /><path
         id="path90"
         style="fill:#000000;fill-opacity:1;fill-rule:nonzero;stroke:none"
         d="m 70.402,23.398 c 0,-0.613 -0.074,-1.062 -0.324,-1.453 -0.176,-0.25 -0.523,-0.472 -0.961,-0.472 -1.301,0 -1.301,1.523 -1.301,1.925 0,0.399 0,1.887 1.301,1.887 1.285,0 1.285,-1.488 1.285,-1.887 z m -1.285,1.723 c -0.262,0 -0.601,-0.148 -0.715,-0.598 -0.074,-0.328 -0.074,-0.789 -0.074,-1.203 0,-0.41 0,-0.836 0.074,-1.136 0.125,-0.438 0.477,-0.563 0.715,-0.563 0.301,0 0.586,0.188 0.688,0.512 0.086,0.301 0.097,0.703 0.097,1.187 0,0.414 0,0.828 -0.074,1.176 -0.113,0.512 -0.488,0.625 -0.711,0.625 z" /><path
         id="path92"
         style="fill:#000000;fill-opacity:1;fill-rule:nonzero;stroke:none"
         d="m 107.141,21.422 h 1.363 c 1.125,0 2.238,-0.824 2.238,-1.715 0,-0.625 -0.527,-1.211 -1.574,-1.211 h -2.578 c -0.149,0 -0.235,0 -0.235,0.149 0,0.101 0.063,0.101 0.223,0.101 0.102,0 0.25,0.012 0.34,0.012 0.137,0.027 0.172,0.039 0.172,0.137 0,0.027 0,0.05 -0.024,0.152 l -1.074,4.273 c -0.074,0.313 -0.09,0.375 -0.726,0.375 -0.125,0 -0.211,0 -0.211,0.153 0,0.097 0.086,0.097 0.113,0.097 0.223,0 0.785,-0.023 1.012,-0.023 0.175,0 0.347,0.012 0.511,0.012 0.176,0 0.352,0.011 0.512,0.011 0.063,0 0.164,0 0.164,-0.16 0,-0.09 -0.074,-0.09 -0.226,-0.09 -0.286,0 -0.512,0 -0.512,-0.136 0,-0.051 0.012,-0.086 0.023,-0.137 z m 0.574,-2.375 c 0.078,-0.277 0.09,-0.301 0.437,-0.301 h 0.766 c 0.66,0 1.086,0.211 1.086,0.762 0,0.312 -0.164,1 -0.477,1.289 -0.398,0.363 -0.875,0.426 -1.222,0.426 h -1.125 z" /><path
         id="path94"
         style="fill:#000000;fill-opacity:1;fill-rule:nonzero;stroke:none"
         d="m 111.707,21.59 c 0,-0.149 0,-0.149 -0.16,-0.149 -0.363,0.352 -0.863,0.352 -1.09,0.352 v 0.199 c 0.125,0 0.5,0 0.801,-0.152 v 2.84 c 0,0.187 0,0.261 -0.551,0.261 h -0.211 v 0.2 c 0.102,0 0.789,-0.024 0.988,-0.024 0.176,0 0.875,0.024 1,0.024 v -0.2 h -0.214 c -0.563,0 -0.563,-0.074 -0.563,-0.261 z" /><path
         id="path96"
         style="fill:#000000;fill-opacity:1;fill-rule:nonzero;stroke:none"
         d="m 110.18,37.168 c 0,-0.023 -0.012,-0.086 -0.086,-0.086 -0.028,0 -0.039,0.012 -0.125,0.102 l -0.551,0.609 c -0.074,-0.109 -0.438,-0.711 -1.324,-0.711 -1.789,0 -3.578,1.762 -3.578,3.613 0,1.274 0.89,2.188 2.175,2.188 0.352,0 0.715,-0.074 1,-0.188 0.403,-0.164 0.551,-0.324 0.688,-0.488 0.074,0.199 0.289,0.488 0.363,0.488 0.039,0 0.063,-0.027 0.063,-0.027 0.011,-0.012 0.086,-0.324 0.125,-0.484 l 0.148,-0.614 c 0.039,-0.136 0.078,-0.277 0.113,-0.414 0.09,-0.347 0.09,-0.375 0.551,-0.375 0.039,0 0.125,-0.011 0.125,-0.16 0,-0.062 -0.039,-0.09 -0.101,-0.09 -0.188,0 -0.661,0.028 -0.836,0.028 -0.25,0 -0.875,-0.028 -1.125,-0.028 -0.063,0 -0.164,0 -0.164,0.164 0,0.086 0.062,0.086 0.238,0.086 0.012,0 0.238,0 0.426,0.012 0.211,0.027 0.25,0.051 0.25,0.152 0,0.075 -0.086,0.426 -0.176,0.723 -0.223,0.875 -1.25,0.965 -1.535,0.965 -0.766,0 -1.602,-0.449 -1.602,-1.676 0,-0.25 0.074,-1.562 0.914,-2.602 0.438,-0.535 1.211,-1.023 2,-1.023 0.813,0 1.285,0.613 1.285,1.539 0,0.324 -0.023,0.324 -0.023,0.41 0,0.074 0.086,0.074 0.113,0.074 0.098,0 0.098,-0.011 0.149,-0.16 z" /><path
         id="path98"
         style="fill:#000000;fill-opacity:1;fill-rule:nonzero;stroke:none"
         d="m 112.246,40.352 c 0,-0.149 0,-0.149 -0.164,-0.149 -0.359,0.348 -0.859,0.348 -1.086,0.348 v 0.203 c 0.125,0 0.5,0 0.801,-0.152 v 2.839 c 0,0.188 0,0.262 -0.551,0.262 h -0.211 v 0.199 c 0.098,0 0.785,-0.023 0.985,-0.023 0.175,0 0.875,0.023 1,0.023 v -0.199 h -0.211 c -0.563,0 -0.563,-0.074 -0.563,-0.262 z" /><g
         id="g100"><path
           id="path102"
           style="fill:none;stroke:#000000;stroke-width:0.23584799;stroke-linecap:butt;stroke-linejoin:miter;stroke-miterlimit:4;stroke-dasharray:none;stroke-opacity:1"
           d="m 97.031,63.531 c -0.027,5.207 8.418,-0.019 11.739,3.907 3.351,-3.938 11.792,1.382 11.734,-3.907" /></g><path
         id="path104"
         style="fill:#000000;fill-opacity:1;fill-rule:nonzero;stroke:none"
         d="m 111.824,68.379 c 0.074,-0.289 0.09,-0.363 0.688,-0.363 0.176,0 0.25,0 0.25,-0.161 0,-0.089 -0.074,-0.089 -0.211,-0.089 H 111.5 c -0.211,0 -0.227,0 -0.312,0.152 l -2.915,4.547 -0.625,-4.512 c -0.023,-0.187 -0.035,-0.187 -0.25,-0.187 h -1.086 c -0.148,0 -0.238,0 -0.238,0.152 0,0.098 0.074,0.098 0.227,0.098 0.113,0 0.25,0.011 0.347,0.011 0.125,0.028 0.176,0.039 0.176,0.141 0,0.023 -0.012,0.047 -0.035,0.148 l -1.016,4.051 c -0.074,0.324 -0.211,0.574 -0.859,0.598 -0.039,0 -0.141,0.015 -0.141,0.152 0,0.074 0.051,0.098 0.114,0.098 0.25,0 0.527,-0.024 0.801,-0.024 0.261,0 0.55,0.024 0.812,0.024 0.039,0 0.148,0 0.148,-0.16 0,-0.09 -0.086,-0.09 -0.148,-0.09 -0.449,0 -0.539,-0.16 -0.539,-0.348 0,-0.051 0,-0.101 0.027,-0.187 l 1.086,-4.34 h 0.012 l 0.687,4.937 c 0.016,0.102 0.028,0.188 0.114,0.188 0.09,0 0.136,-0.086 0.175,-0.137 l 3.227,-5.051 h 0.012 l -1.153,4.563 c -0.074,0.312 -0.086,0.375 -0.722,0.375 -0.125,0 -0.215,0 -0.215,0.152 0,0.098 0.09,0.098 0.113,0.098 0.227,0 0.762,-0.024 0.988,-0.024 0.325,0 0.676,0.024 1,0.024 0.051,0 0.149,0 0.149,-0.16 0,-0.09 -0.074,-0.09 -0.223,-0.09 -0.289,0 -0.511,0 -0.511,-0.137 0,-0.035 0,-0.051 0.035,-0.199 z" /></g></g></svg>