<?xml version="1.0" encoding="UTF-8" standalone="no"?>
<svg
   xmlns:dc="http://purl.org/dc/elements/1.1/"
   xmlns:cc="http://creativecommons.org/ns#"
   xmlns:rdf="http://www.w3.org/1999/02/22-rdf-syntax-ns#"
   xmlns:svg="http://www.w3.org/2000/svg"
   xmlns="http://www.w3.org/2000/svg"
   viewBox="0 0 226.77165 175.74803"
   height="175.74803"
   width="226.77165"
   xml:space="preserve"
   id="svg2"
   version="1.1"><metadata
     id="metadata8"><rdf:RDF><cc:Work
         rdf:about=""><dc:format>image/svg+xml</dc:format><dc:type
           rdf:resource="http://purl.org/dc/dcmitype/StillImage" /></cc:Work></rdf:RDF></metadata><defs
     id="defs6" /><g
     transform="matrix(1.3333333,0,0,1.3333333,0,7.727034e-6)"
     id="g10"><g
       id="g12"><g
         id="g14"><path
           id="path16"
           style="fill:none;stroke:#000000;stroke-width:0.44787401;stroke-linecap:butt;stroke-linejoin:miter;stroke-miterlimit:4;stroke-dasharray:none;stroke-opacity:1"
           d="M 110.27,109.293 110.266,23.055" /></g><g
         id="g18"><path
           id="path20"
           style="fill:none;stroke:#000000;stroke-width:0.44787401;stroke-linecap:butt;stroke-linejoin:miter;stroke-miterlimit:4;stroke-dasharray:none;stroke-opacity:1"
           d="m 18.629,23.055 0.004,86.125" /></g><path
         id="path22"
         style="fill:#000000;fill-opacity:1;fill-rule:nonzero;stroke:none"
         d="m 125.668,18.852 c 0,-0.637 -0.035,-1.278 -0.313,-1.864 -0.359,-0.773 -1.023,-0.898 -1.347,-0.898 -0.488,0 -1.063,0.211 -1.403,0.949 -0.25,0.551 -0.285,1.176 -0.285,1.813 0,0.597 0.024,1.312 0.364,1.925 0.336,0.637 0.921,0.797 1.312,0.797 0.422,0 1.035,-0.16 1.387,-0.922 0.25,-0.55 0.285,-1.175 0.285,-1.8 z m -1.672,2.55 c -0.312,0 -0.789,-0.203 -0.926,-0.964 -0.09,-0.473 -0.09,-1.211 -0.09,-1.688 0,-0.512 0,-1.035 0.063,-1.461 0.152,-0.949 0.75,-1.027 0.953,-1.027 0.262,0 0.785,0.152 0.938,0.937 0.086,0.453 0.086,1.051 0.086,1.551 0,0.602 0,1.137 -0.086,1.652 -0.125,0.762 -0.579,1 -0.938,1 z" /><path
         id="path24"
         style="fill:#000000;fill-opacity:1;fill-rule:nonzero;stroke:none"
         d="m 139.395,18.852 c 0,-0.637 -0.036,-1.278 -0.313,-1.864 -0.359,-0.773 -1.023,-0.898 -1.348,-0.898 -0.488,0 -1.062,0.211 -1.402,0.949 -0.25,0.551 -0.285,1.176 -0.285,1.813 0,0.597 0.023,1.312 0.363,1.925 0.336,0.637 0.922,0.797 1.313,0.797 0.422,0 1.035,-0.16 1.386,-0.922 0.25,-0.55 0.286,-1.175 0.286,-1.8 z m -1.672,2.55 c -0.313,0 -0.789,-0.203 -0.926,-0.964 -0.09,-0.473 -0.09,-1.211 -0.09,-1.688 0,-0.512 0,-1.035 0.063,-1.461 0.152,-0.949 0.75,-1.027 0.953,-1.027 0.261,0 0.785,0.152 0.937,0.937 0.086,0.453 0.086,1.051 0.086,1.551 0,0.602 0,1.137 -0.086,1.652 -0.125,0.762 -0.578,1 -0.937,1 z" /><path
         id="path26"
         style="fill:#000000;fill-opacity:1;fill-rule:nonzero;stroke:none"
         d="m 153.125,18.852 c 0,-0.637 -0.039,-1.278 -0.313,-1.864 -0.363,-0.773 -1.027,-0.898 -1.351,-0.898 -0.488,0 -1.063,0.211 -1.399,0.949 -0.25,0.551 -0.289,1.176 -0.289,1.813 0,0.597 0.024,1.312 0.364,1.925 0.336,0.637 0.925,0.797 1.312,0.797 0.426,0 1.035,-0.16 1.387,-0.922 0.25,-0.55 0.289,-1.175 0.289,-1.8 z m -1.676,2.55 c -0.312,0 -0.789,-0.203 -0.926,-0.964 -0.085,-0.473 -0.085,-1.211 -0.085,-1.688 0,-0.512 0,-1.035 0.062,-1.461 0.148,-0.949 0.75,-1.027 0.949,-1.027 0.262,0 0.785,0.152 0.938,0.937 0.086,0.453 0.086,1.051 0.086,1.551 0,0.602 0,1.137 -0.086,1.652 -0.125,0.762 -0.575,1 -0.938,1 z" /><g
         id="g28"><path
           id="path30"
           style="fill:none;stroke:#000000;stroke-width:0.44787401;stroke-linecap:butt;stroke-linejoin:miter;stroke-miterlimit:4;stroke-dasharray:none;stroke-opacity:1"
           d="M 96.543,109.293 96.539,23.055" /></g><g
         id="g32"><path
           id="path34"
           style="fill:none;stroke:#000000;stroke-width:0.44787401;stroke-linecap:butt;stroke-linejoin:miter;stroke-miterlimit:4;stroke-dasharray:none;stroke-opacity:1"
           d="M 123.996,109.293 123.992,23.055" /></g><g
         id="g36"><path
           id="path38"
           style="fill:none;stroke:#000000;stroke-width:0.73133898;stroke-linecap:butt;stroke-linejoin:miter;stroke-miterlimit:4;stroke-dasharray:none;stroke-opacity:1"
           d="M 137.723,109.293 137.719,23.055" /></g><g
         id="g40"><path
           id="path42"
           style="fill:none;stroke:#000000;stroke-width:0.44787401;stroke-linecap:butt;stroke-linejoin:miter;stroke-miterlimit:4;stroke-dasharray:none;stroke-opacity:1"
           d="M 151.449,109.293 151.445,23.055" /></g><g
         id="g44"><path
           id="path46"
           style="fill:#b9e0ff;fill-opacity:1;fill-rule:nonzero;stroke:#000000;stroke-width:0.14173201;stroke-linecap:butt;stroke-linejoin:miter;stroke-miterlimit:4;stroke-dasharray:none;stroke-opacity:1"
           d="m 113.754,32.441 h 34.207 c 3.68,0 6.644,0.758 6.644,1.704 v 6.304 c 0,0.946 -2.964,1.703 -6.644,1.703 h -34.207 c -3.68,0 -6.645,-0.757 -6.645,-1.703 v -6.304 c 0,-0.946 2.965,-1.704 6.645,-1.704 z" /></g><path
         id="path48"
         style="fill:#000000;fill-opacity:1;fill-rule:nonzero;stroke:none"
         d="m 130.152,36.645 h -0.175 c 0.461,-0.75 0.988,-1.528 1.761,-2.125 0.125,0.136 0.2,0.312 0.2,0.523 0,0.238 -0.098,0.523 -0.325,0.852 -0.187,0.261 -0.461,0.523 -0.789,0.687 -0.097,0.047 -0.211,0.098 -0.312,0.148 -0.086,-0.05 -0.211,-0.085 -0.36,-0.085 z m -0.937,0.171 c -0.25,0.352 -0.488,0.688 -0.727,1.028 -0.574,0.812 -1.41,1.625 -2.086,1.625 -0.527,0 -0.902,-0.153 -0.902,-0.449 0,-0.051 0.016,-0.114 0.039,-0.176 0.063,0.051 0.125,0.062 0.199,0.062 0.215,0 0.438,-0.152 0.438,-0.301 0,-0.199 -0.114,-0.273 -0.262,-0.273 -0.164,0 -0.363,0.098 -0.461,0.234 -0.125,0.188 -0.187,0.34 -0.187,0.477 0,0.414 0.523,0.602 1.097,0.602 0.926,0 2.164,-0.801 2.801,-1.727 0.199,-0.262 0.375,-0.563 0.598,-0.875 0.164,0 0.351,-0.012 0.539,-0.051 0,0.012 0,0.051 -0.012,0.09 -0.027,0.148 -0.215,0.438 -0.402,0.699 l -0.649,0.899 c -0.086,0.113 -0.113,0.238 -0.113,0.34 0,0.136 0.063,0.261 0.152,0.347 0.11,0.137 0.274,0.215 0.461,0.25 0.063,0.039 0.164,0.074 0.262,0.074 0.152,0 0.324,-0.086 0.488,-0.187 0.102,-0.063 0.2,-0.137 0.301,-0.199 0.324,-0.25 0.586,-0.535 0.801,-0.825 0,-0.011 0.012,-0.023 0.012,-0.039 0,-0.023 -0.012,-0.046 -0.04,-0.062 0,0 -0.023,0 -0.035,0 h -0.089 c -0.024,0 -0.036,0 -0.051,0.016 -0.199,0.285 -0.449,0.574 -0.75,0.824 -0.075,0.062 -0.149,0.125 -0.223,0.176 -0.137,0.074 -0.262,0.109 -0.375,0.109 -0.09,0 -0.176,0 -0.25,-0.012 -0.039,-0.035 -0.062,-0.086 -0.074,-0.148 0,-0.012 0,-0.028 0,-0.051 0,-0.148 0.074,-0.336 0.211,-0.539 l 0.601,-0.836 c 0.172,-0.25 0.262,-0.512 0.262,-0.727 0,-0.046 0,-0.097 -0.012,-0.148 -0.015,-0.063 -0.039,-0.125 -0.078,-0.176 0.113,-0.035 0.227,-0.074 0.352,-0.137 0.375,-0.187 0.761,-0.449 0.976,-0.761 0.223,-0.313 0.325,-0.602 0.325,-0.852 0,-0.262 -0.102,-0.488 -0.262,-0.66 -0.039,-0.051 -0.078,-0.074 -0.113,-0.113 l 0.285,-0.188 c 0.027,-0.011 0.027,-0.023 0.027,-0.051 l -0.012,-0.085 c 0,-0.028 -0.05,-0.051 -0.078,-0.051 0,0 -0.011,0 -0.011,0.011 -0.137,0.075 -0.262,0.153 -0.376,0.239 -0.425,-0.274 -1.011,-0.375 -1.66,-0.375 -0.55,0 -1.226,0.164 -1.902,0.511 -0.598,0.313 -1.172,0.762 -1.523,1.25 -0.274,0.387 -0.45,0.79 -0.45,1.125 0,0.051 0,0.086 0.012,0.137 0.051,0.34 0.324,0.563 0.762,0.563 0.238,0 0.527,-0.098 0.789,-0.262 0.285,-0.176 0.535,-0.398 0.711,-0.637 0.312,-0.465 0.676,-0.976 0.676,-1.386 v -0.09 c -0.012,-0.024 -0.039,-0.051 -0.075,-0.051 l -0.125,0.051 c -0.027,0 -0.039,0.027 -0.039,0.05 v 0.051 c 0,0.336 -0.636,0.961 -0.863,1.285 -0.148,0.215 -0.297,0.414 -0.523,0.59 -0.176,0.137 -0.375,0.223 -0.524,0.223 -0.363,0 -0.551,-0.16 -0.578,-0.422 l -0.012,-0.102 c 0,-0.289 0.164,-0.648 0.438,-1.039 0.324,-0.461 0.851,-0.898 1.426,-1.183 0.636,-0.34 1.25,-0.488 1.773,-0.488 0.602,0 1.125,0.113 1.465,0.347 -0.926,0.664 -1.641,1.488 -2.278,2.34 -0.023,0 -0.035,0 -0.062,0.023 -0.023,0.04 -0.035,0.063 -0.035,0.086 z m 0.91,0.016 h 0.027 c -0.113,0.023 -0.214,0.023 -0.312,0.035 0.012,-0.012 0.012,-0.035 0.023,-0.035 z" /><path
         id="path50"
         style="fill:#000000;fill-opacity:1;fill-rule:nonzero;stroke:none"
         d="m 134.762,37.375 c 0.039,-0.16 0.05,-0.176 0.176,-0.187 0.027,0 0.214,0 0.324,0 0.351,0 0.488,0 0.625,0.039 0.25,0.074 0.265,0.238 0.265,0.437 0,0.086 0,0.16 -0.039,0.449 l -0.011,0.063 c 0,0.062 0.035,0.086 0.097,0.086 0.09,0 0.09,-0.047 0.102,-0.137 l 0.148,-1.063 c 0,-0.074 -0.062,-0.074 -0.16,-0.074 h -3.426 c -0.136,0 -0.148,0 -0.187,0.114 l -0.364,0.988 c 0,0.023 -0.023,0.074 -0.023,0.098 0,0.027 0.012,0.074 0.102,0.074 0.074,0 0.074,-0.024 0.109,-0.137 0.328,-0.887 0.516,-0.937 1.363,-0.937 h 0.227 c 0.172,0 0.172,0 0.172,0.05 0,0 0,0.039 -0.024,0.114 l -0.738,2.937 c -0.047,0.199 -0.062,0.262 -0.648,0.262 -0.2,0 -0.25,0 -0.25,0.125 0,0.012 0.011,0.074 0.101,0.074 0.149,0 0.324,-0.012 0.473,-0.012 0.164,0 0.324,-0.011 0.476,-0.011 0.16,0 0.348,0 0.512,0.011 0.148,0 0.313,0.012 0.461,0.012 0.051,0 0.125,0 0.125,-0.125 0,-0.074 -0.051,-0.074 -0.223,-0.074 -0.101,0 -0.215,-0.012 -0.328,-0.012 C 134.012,40.527 134,40.5 134,40.438 c 0,-0.051 0,-0.051 0.027,-0.137 z" /><g
         id="g52"><path
           id="path54"
           style="fill:#b9e0ff;fill-opacity:1;fill-rule:nonzero;stroke:#000000;stroke-width:0.14173201;stroke-linecap:butt;stroke-linejoin:miter;stroke-miterlimit:4;stroke-dasharray:none;stroke-opacity:1"
           d="m 100.098,44.078 h 34.207 c 3.679,0 6.644,0.758 6.644,1.703 v 6.305 c 0,0.941 -2.965,1.703 -6.644,1.703 h -34.207 c -3.68,0 -6.645,-0.762 -6.645,-1.703 v -6.305 c 0,-0.945 2.965,-1.703 6.645,-1.703 z" /></g><path
         id="path56"
         style="fill:#000000;fill-opacity:1;fill-rule:nonzero;stroke:none"
         d="m 116.496,48.277 h -0.176 c 0.461,-0.75 0.989,-1.523 1.762,-2.125 0.125,0.141 0.199,0.313 0.199,0.528 0,0.238 -0.097,0.523 -0.324,0.847 -0.187,0.266 -0.461,0.528 -0.789,0.688 -0.098,0.051 -0.211,0.101 -0.313,0.152 -0.085,-0.051 -0.21,-0.09 -0.359,-0.09 z m -0.937,0.176 c -0.25,0.352 -0.489,0.688 -0.727,1.027 -0.574,0.813 -1.414,1.625 -2.086,1.625 -0.527,0 -0.902,-0.152 -0.902,-0.453 0,-0.047 0.015,-0.109 0.039,-0.172 0.062,0.047 0.125,0.063 0.199,0.063 0.211,0 0.438,-0.152 0.438,-0.301 0,-0.199 -0.114,-0.277 -0.262,-0.277 -0.164,0 -0.363,0.101 -0.461,0.238 -0.125,0.188 -0.188,0.34 -0.188,0.477 0,0.41 0.524,0.597 1.098,0.597 0.926,0 2.164,-0.797 2.801,-1.722 0.199,-0.262 0.375,-0.563 0.597,-0.875 0.165,0 0.352,-0.012 0.54,-0.051 0,0.012 0,0.051 -0.012,0.086 -0.028,0.152 -0.215,0.437 -0.403,0.703 l -0.648,0.898 c -0.086,0.114 -0.113,0.239 -0.113,0.336 0,0.141 0.062,0.266 0.152,0.352 0.109,0.137 0.274,0.211 0.461,0.25 0.063,0.039 0.164,0.074 0.262,0.074 0.152,0 0.324,-0.086 0.488,-0.187 0.102,-0.063 0.199,-0.137 0.301,-0.2 0.324,-0.25 0.586,-0.539 0.801,-0.824 0,-0.012 0.011,-0.027 0.011,-0.039 0,-0.023 -0.011,-0.051 -0.039,-0.062 0,0 -0.023,0 -0.035,0 h -0.09 c -0.023,0 -0.035,0 -0.051,0.011 -0.199,0.289 -0.449,0.578 -0.75,0.828 -0.074,0.063 -0.148,0.125 -0.222,0.172 -0.137,0.078 -0.262,0.114 -0.375,0.114 -0.09,0 -0.176,0 -0.25,-0.012 -0.039,-0.039 -0.063,-0.086 -0.074,-0.149 0,-0.015 0,-0.027 0,-0.05 0,-0.153 0.074,-0.34 0.211,-0.539 l 0.601,-0.836 c 0.172,-0.25 0.262,-0.512 0.262,-0.727 0,-0.051 0,-0.098 -0.012,-0.148 -0.016,-0.063 -0.039,-0.125 -0.078,-0.176 0.113,-0.039 0.227,-0.074 0.352,-0.137 0.375,-0.187 0.761,-0.449 0.976,-0.762 0.223,-0.312 0.324,-0.601 0.324,-0.851 0,-0.262 -0.101,-0.488 -0.261,-0.664 -0.039,-0.047 -0.079,-0.074 -0.114,-0.11 l 0.285,-0.187 c 0.028,-0.016 0.028,-0.027 0.028,-0.051 l -0.012,-0.09 c 0,-0.023 -0.051,-0.047 -0.078,-0.047 0,0 -0.012,0 -0.012,0.012 -0.136,0.074 -0.261,0.149 -0.375,0.238 -0.426,-0.277 -1.011,-0.375 -1.66,-0.375 -0.551,0 -1.226,0.161 -1.902,0.512 -0.598,0.313 -1.176,0.762 -1.524,1.25 -0.277,0.387 -0.449,0.785 -0.449,1.125 0,0.051 0,0.086 0.012,0.137 0.051,0.336 0.324,0.562 0.762,0.562 0.238,0 0.523,-0.101 0.789,-0.261 0.285,-0.176 0.535,-0.403 0.711,-0.637 0.312,-0.465 0.675,-0.977 0.675,-1.391 v -0.086 c -0.011,-0.023 -0.039,-0.05 -0.074,-0.05 l -0.125,0.05 c -0.027,0 -0.039,0.024 -0.039,0.051 v 0.051 c 0,0.336 -0.637,0.961 -0.863,1.285 -0.149,0.215 -0.301,0.414 -0.524,0.59 -0.175,0.137 -0.375,0.223 -0.527,0.223 -0.359,0 -0.547,-0.161 -0.574,-0.426 l -0.012,-0.098 c 0,-0.289 0.164,-0.652 0.438,-1.039 0.324,-0.461 0.851,-0.898 1.425,-1.187 0.637,-0.336 1.25,-0.489 1.774,-0.489 0.601,0 1.125,0.114 1.465,0.352 -0.926,0.664 -1.641,1.488 -2.278,2.336 -0.023,0 -0.035,0 -0.062,0.027 -0.024,0.035 -0.035,0.063 -0.035,0.086 z m 0.91,0.012 h 0.027 c -0.113,0.027 -0.215,0.027 -0.312,0.039 0.011,-0.012 0.011,-0.039 0.023,-0.039 z" /><path
         id="path58"
         style="fill:#000000;fill-opacity:1;fill-rule:nonzero;stroke:none"
         d="m 121.105,49.012 c 0.04,-0.164 0.051,-0.176 0.176,-0.188 0.028,0 0.215,0 0.324,0 0.352,0 0.489,0 0.625,0.039 0.25,0.075 0.266,0.235 0.266,0.438 0,0.086 0,0.16 -0.039,0.449 l -0.012,0.062 c 0,0.063 0.035,0.086 0.098,0.086 0.09,0 0.09,-0.05 0.102,-0.136 l 0.148,-1.063 c 0,-0.074 -0.063,-0.074 -0.16,-0.074 h -3.426 c -0.137,0 -0.148,0 -0.187,0.113 l -0.364,0.985 c 0,0.027 -0.023,0.078 -0.023,0.101 0,0.024 0.012,0.074 0.097,0.074 0.079,0 0.079,-0.023 0.114,-0.136 0.324,-0.887 0.511,-0.938 1.363,-0.938 h 0.227 c 0.171,0 0.171,0 0.171,0.051 0,0 0,0.035 -0.023,0.113 l -0.738,2.938 c -0.051,0.199 -0.063,0.262 -0.649,0.262 -0.199,0 -0.25,0 -0.25,0.124 0,0.012 0.012,0.075 0.098,0.075 0.152,0 0.328,-0.012 0.477,-0.012 0.164,0 0.324,-0.012 0.476,-0.012 0.16,0 0.348,0 0.512,0.012 0.148,0 0.312,0.012 0.461,0.012 0.051,0 0.125,0 0.125,-0.125 0,-0.074 -0.051,-0.074 -0.223,-0.074 -0.101,0 -0.215,-0.012 -0.328,-0.012 -0.188,-0.016 -0.199,-0.039 -0.199,-0.102 0,-0.051 0,-0.051 0.027,-0.136 z" /><g
         id="g60"><path
           id="path62"
           style="fill:none;stroke:#000000;stroke-width:0.50031501;stroke-linecap:butt;stroke-linejoin:miter;stroke-miterlimit:4;stroke-dasharray:none;stroke-opacity:1"
           d="m 135.016,108.078 c 5.41,-5.824 5.41,-5.824 5.41,-5.824" /></g><path
         id="path64"
         style="fill:#000000;fill-opacity:1;fill-rule:nonzero;stroke:none"
         d="m 131.98,105.449 c -0.058,-0.097 -0.074,-0.121 0.086,-0.285 0.047,-0.047 0.067,-0.066 0.02,-0.113 -0.024,-0.024 -0.043,0 -0.078,0.035 l -0.281,0.289 c -0.059,0.055 -0.059,0.059 -0.043,0.125 l 0.464,2.008 -1.398,-1.035 c -0.059,-0.043 -0.059,-0.039 -0.117,0.019 l -0.289,0.297 c -0.043,0.039 -0.063,0.066 -0.024,0.106 0.028,0.027 0.047,0.003 0.086,-0.036 0.032,-0.031 0.071,-0.066 0.098,-0.093 0.039,-0.028 0.058,-0.036 0.086,-0.012 0.004,0.008 0.008,0.019 0.031,0.051 l 0.832,1.359 c 0.07,0.106 0.102,0.211 -0.066,0.395 -0.008,0.007 -0.032,0.039 0.004,0.078 0.023,0.019 0.043,0.011 0.058,-0.004 0.067,-0.071 0.133,-0.153 0.207,-0.227 0.071,-0.07 0.153,-0.144 0.223,-0.215 0.012,-0.011 0.039,-0.039 -0.004,-0.086 -0.023,-0.023 -0.047,0.004 -0.063,0.02 -0.121,0.121 -0.187,0.102 -0.238,0.055 -0.015,-0.016 -0.027,-0.028 -0.047,-0.059 l -0.894,-1.453 0.004,-0.004 1.531,1.129 c 0.031,0.023 0.059,0.043 0.082,0.019 0.023,-0.023 0.012,-0.058 0.008,-0.082 l -0.516,-2.23 h 0.004 l 0.938,1.527 c 0.066,0.106 0.078,0.125 -0.094,0.301 -0.031,0.031 -0.055,0.059 -0.016,0.098 0.028,0.027 0.051,0 0.059,-0.004 0.058,-0.063 0.195,-0.215 0.258,-0.277 0.086,-0.09 0.187,-0.176 0.273,-0.266 0.012,-0.016 0.039,-0.043 -0.004,-0.086 -0.023,-0.023 -0.047,0 -0.086,0.039 -0.074,0.078 -0.136,0.141 -0.172,0.102 -0.011,-0.008 -0.015,-0.012 -0.047,-0.063 z" /><path
         id="path66"
         style="fill:#000000;fill-opacity:1;fill-rule:nonzero;stroke:none"
         d="m 134.996,104 c 0.035,-0.035 0.074,-0.078 0.031,-0.121 -0.039,-0.039 -0.082,0 -0.117,0.039 l -1.148,1.176 c -0.039,0.039 -0.074,0.074 -0.035,0.117 0.046,0.043 0.082,0.004 0.117,-0.031 z" /><path
         id="path68"
         style="fill:#000000;fill-opacity:1;fill-rule:nonzero;stroke:none"
         d="m 136.324,103.309 0.004,-0.45 c 0.027,-0.632 0.039,-0.875 -0.18,-1.089 -0.246,-0.243 -0.613,-0.219 -0.871,0.046 -0.242,0.246 -0.195,0.606 -0.004,0.793 0.122,0.118 0.227,0.008 0.235,0 0.035,-0.035 0.086,-0.132 -0.004,-0.222 -0.055,-0.055 -0.156,-0.071 -0.227,0.004 -0.019,0.015 -0.019,0.019 -0.023,0.031 -0.098,-0.188 -0.059,-0.383 0.062,-0.512 0.196,-0.195 0.461,-0.113 0.641,0.059 0.172,0.168 0.238,0.441 0.258,0.699 l 0.055,0.867 c 0,0.047 0.007,0.055 0.058,0.106 l 0.793,-0.809 -0.324,-0.43 -0.051,0.055 c 0.055,0.074 0.137,0.184 0.145,0.238 0.004,0.032 -0.137,0.176 -0.184,0.223 z" /><g
         id="g70"><path
           id="path72"
           style="fill:#b9e0ff;fill-opacity:1;fill-rule:nonzero;stroke:#000000;stroke-width:0.14173201;stroke-linecap:butt;stroke-linejoin:miter;stroke-miterlimit:4;stroke-dasharray:none;stroke-opacity:1"
           d="m 85.992,56.227 h 34.207 c 3.684,0 6.645,0.757 6.645,1.703 v 6.304 c 0,0.942 -2.961,1.704 -6.645,1.704 H 85.992 c -3.68,0 -6.644,-0.762 -6.644,-1.704 V 57.93 c 0,-0.946 2.964,-1.703 6.644,-1.703 z" /></g><path
         id="path74"
         style="fill:#000000;fill-opacity:1;fill-rule:nonzero;stroke:none"
         d="m 102.391,60.426 h -0.176 c 0.465,-0.75 0.988,-1.524 1.762,-2.125 0.125,0.14 0.203,0.312 0.203,0.527 0,0.238 -0.102,0.524 -0.328,0.848 -0.188,0.265 -0.461,0.527 -0.786,0.687 -0.101,0.051 -0.214,0.102 -0.312,0.153 -0.09,-0.051 -0.215,-0.09 -0.363,-0.09 z m -0.938,0.176 c -0.25,0.351 -0.488,0.687 -0.723,1.027 -0.578,0.812 -1.414,1.625 -2.089,1.625 -0.524,0 -0.899,-0.152 -0.899,-0.453 0,-0.047 0.012,-0.11 0.035,-0.172 0.063,0.047 0.125,0.062 0.203,0.062 0.211,0 0.438,-0.152 0.438,-0.3 0,-0.2 -0.113,-0.278 -0.266,-0.278 -0.16,0 -0.359,0.102 -0.461,0.239 -0.125,0.187 -0.187,0.339 -0.187,0.476 0,0.41 0.523,0.598 1.101,0.598 0.922,0 2.161,-0.797 2.797,-1.723 0.203,-0.262 0.375,-0.562 0.602,-0.875 0.16,0 0.348,-0.012 0.535,-0.051 0,0.012 0,0.051 -0.012,0.086 -0.023,0.153 -0.211,0.438 -0.398,0.703 l -0.649,0.899 c -0.089,0.113 -0.113,0.238 -0.113,0.336 0,0.14 0.063,0.265 0.149,0.351 0.113,0.137 0.277,0.211 0.464,0.25 0.063,0.039 0.161,0.075 0.262,0.075 0.149,0 0.324,-0.086 0.485,-0.188 0.101,-0.062 0.203,-0.137 0.3,-0.199 0.325,-0.25 0.59,-0.539 0.801,-0.824 0,-0.012 0.012,-0.028 0.012,-0.039 0,-0.024 -0.012,-0.051 -0.035,-0.063 0,0 -0.028,0 -0.039,0 h -0.086 c -0.028,0 -0.039,0 -0.051,0.012 -0.199,0.289 -0.449,0.578 -0.75,0.828 -0.074,0.062 -0.152,0.125 -0.227,0.172 -0.136,0.078 -0.261,0.113 -0.375,0.113 -0.086,0 -0.175,0 -0.25,-0.012 -0.035,-0.039 -0.062,-0.086 -0.074,-0.148 0,-0.016 0,-0.027 0,-0.051 0,-0.152 0.074,-0.34 0.211,-0.539 l 0.602,-0.836 c 0.175,-0.25 0.261,-0.512 0.261,-0.726 0,-0.051 0,-0.098 -0.011,-0.149 -0.012,-0.062 -0.039,-0.125 -0.075,-0.176 0.114,-0.039 0.223,-0.074 0.348,-0.136 0.375,-0.188 0.766,-0.45 0.977,-0.762 0.226,-0.313 0.324,-0.602 0.324,-0.852 0,-0.261 -0.098,-0.488 -0.262,-0.664 -0.039,-0.047 -0.074,-0.074 -0.113,-0.109 l 0.289,-0.188 c 0.023,-0.015 0.023,-0.027 0.023,-0.05 l -0.011,-0.09 c 0,-0.024 -0.051,-0.047 -0.075,-0.047 0,0 -0.011,0 -0.011,0.012 -0.141,0.074 -0.266,0.148 -0.375,0.238 -0.426,-0.277 -1.016,-0.375 -1.664,-0.375 -0.551,0 -1.223,0.16 -1.899,0.512 -0.601,0.312 -1.176,0.761 -1.527,1.25 -0.274,0.386 -0.449,0.785 -0.449,1.125 0,0.05 0,0.086 0.011,0.136 0.051,0.336 0.328,0.563 0.766,0.563 0.234,0 0.523,-0.102 0.785,-0.262 0.289,-0.176 0.539,-0.402 0.715,-0.637 0.312,-0.464 0.672,-0.976 0.672,-1.39 V 58.84 c -0.012,-0.024 -0.035,-0.051 -0.074,-0.051 l -0.125,0.051 c -0.024,0 -0.036,0.023 -0.036,0.051 v 0.05 c 0,0.336 -0.64,0.961 -0.863,1.286 -0.152,0.214 -0.301,0.414 -0.527,0.589 -0.172,0.137 -0.375,0.223 -0.524,0.223 -0.363,0 -0.55,-0.16 -0.574,-0.426 L 98.73,60.516 c 0,-0.289 0.161,-0.653 0.438,-1.039 0.324,-0.461 0.848,-0.899 1.422,-1.188 0.64,-0.336 1.25,-0.488 1.777,-0.488 0.598,0 1.125,0.113 1.461,0.351 -0.926,0.664 -1.637,1.489 -2.273,2.336 -0.028,0 -0.039,0 -0.063,0.028 -0.027,0.035 -0.039,0.062 -0.039,0.086 z m 0.914,0.011 h 0.024 c -0.114,0.028 -0.211,0.028 -0.313,0.039 0.012,-0.011 0.012,-0.039 0.024,-0.039 z" /><path
         id="path76"
         style="fill:#000000;fill-opacity:1;fill-rule:nonzero;stroke:none"
         d="m 107.004,61.16 c 0.039,-0.164 0.051,-0.176 0.176,-0.187 0.023,0 0.211,0 0.324,0 0.348,0 0.488,0 0.625,0.039 0.25,0.074 0.262,0.234 0.262,0.437 0,0.086 0,0.16 -0.039,0.449 l -0.012,0.063 c 0,0.062 0.039,0.086 0.101,0.086 0.086,0 0.086,-0.051 0.098,-0.137 l 0.152,-1.062 c 0,-0.075 -0.062,-0.075 -0.164,-0.075 h -3.422 c -0.14,0 -0.152,0 -0.187,0.114 l -0.363,0.984 c 0,0.027 -0.028,0.078 -0.028,0.102 0,0.023 0.016,0.074 0.102,0.074 0.074,0 0.074,-0.024 0.113,-0.137 0.324,-0.887 0.512,-0.937 1.363,-0.937 h 0.223 c 0.176,0 0.176,0 0.176,0.05 0,0 0,0.036 -0.024,0.114 l -0.738,2.937 c -0.051,0.199 -0.062,0.262 -0.652,0.262 -0.199,0 -0.25,0 -0.25,0.125 0,0.012 0.015,0.074 0.101,0.074 0.149,0 0.325,-0.012 0.477,-0.012 0.16,0 0.324,-0.011 0.473,-0.011 0.164,0 0.351,0 0.511,0.011 0.153,0 0.313,0.012 0.465,0.012 0.051,0 0.125,0 0.125,-0.125 0,-0.074 -0.051,-0.074 -0.226,-0.074 -0.098,0 -0.211,-0.012 -0.325,-0.012 -0.187,-0.015 -0.199,-0.039 -0.199,-0.101 0,-0.051 0,-0.051 0.024,-0.137 z" /><g
         id="g78"><path
           id="path80"
           style="fill:#ffffff;fill-opacity:1;fill-rule:nonzero;stroke:#fff9b9;stroke-width:0.154744;stroke-linecap:butt;stroke-linejoin:miter;stroke-miterlimit:4;stroke-dasharray:none;stroke-opacity:1"
           d="m 78.793,55.684 h 16.789 v 10.98 H 78.793 Z" /></g><path
         id="path82"
         style="fill:#000000;fill-opacity:1;fill-rule:nonzero;stroke:none"
         d="m 61.488,114.059 c 0,-0.637 -0.039,-1.274 -0.312,-1.864 -0.364,-0.773 -1.028,-0.898 -1.352,-0.898 -0.488,0 -1.062,0.211 -1.398,0.949 -0.25,0.551 -0.289,1.176 -0.289,1.813 0,0.601 0.023,1.312 0.363,1.925 0.336,0.637 0.926,0.801 1.312,0.801 0.426,0 1.036,-0.164 1.387,-0.926 0.25,-0.55 0.289,-1.175 0.289,-1.8 z m -1.676,2.55 c -0.312,0 -0.789,-0.199 -0.925,-0.961 -0.086,-0.476 -0.086,-1.214 -0.086,-1.687 0,-0.516 0,-1.039 0.062,-1.465 0.149,-0.949 0.75,-1.023 0.949,-1.023 0.262,0 0.786,0.148 0.938,0.937 0.086,0.449 0.086,1.051 0.086,1.551 0,0.598 0,1.137 -0.086,1.648 -0.125,0.762 -0.574,1 -0.938,1 z" /><g
         id="g84"><path
           id="path86"
           style="fill:none;stroke:#000000;stroke-width:0.44787401;stroke-linecap:butt;stroke-linejoin:miter;stroke-miterlimit:4;stroke-dasharray:none;stroke-opacity:1"
           d="m 73.535,23.055 0.008,86.121" /></g><g
         id="g88"><path
           id="path90"
           style="fill:none;stroke:#000000;stroke-width:0.44787401;stroke-linecap:butt;stroke-linejoin:miter;stroke-miterlimit:4;stroke-dasharray:none;stroke-opacity:1"
           d="m 46.082,23.055 0.004,86.121" /></g><g
         id="g92"><path
           id="path94"
           style="fill:none;stroke:#000000;stroke-width:0.73133898;stroke-linecap:butt;stroke-linejoin:miter;stroke-miterlimit:4;stroke-dasharray:none;stroke-opacity:1"
           d="M 32.355,109.492 32.359,23.367" /></g><g
         id="g96"><path
           id="path98"
           style="fill:none;stroke:#000000;stroke-width:0.44787401;stroke-linecap:butt;stroke-linejoin:miter;stroke-miterlimit:4;stroke-dasharray:none;stroke-opacity:1"
           d="m 59.809,23.055 0.003,86.121" /></g><g
         id="g100"><path
           id="path102"
           style="fill:#b9e0ff;fill-opacity:1;fill-rule:nonzero;stroke:#000000;stroke-width:0.14173201;stroke-linecap:butt;stroke-linejoin:miter;stroke-miterlimit:4;stroke-dasharray:none;stroke-opacity:1"
           d="M 56.324,99.805 H 22.117 c -3.679,0 -6.644,-0.758 -6.644,-1.703 v -6.305 c 0,-0.942 2.965,-1.703 6.644,-1.703 h 34.207 c 3.68,0 6.645,0.761 6.645,1.703 v 6.305 c 0,0.945 -2.965,1.703 -6.645,1.703 z" /></g><path
         id="path104"
         style="fill:#000000;fill-opacity:1;fill-rule:nonzero;stroke:none"
         d="M 38.516,94.297 H 38.34 c 0.461,-0.75 0.988,-1.524 1.762,-2.125 0.125,0.137 0.199,0.312 0.199,0.523 0,0.239 -0.098,0.528 -0.324,0.852 -0.188,0.262 -0.461,0.523 -0.786,0.687 -0.101,0.051 -0.214,0.098 -0.312,0.149 -0.09,-0.051 -0.215,-0.086 -0.363,-0.086 z m -0.938,0.176 c -0.25,0.347 -0.488,0.687 -0.726,1.023 -0.575,0.813 -1.411,1.625 -2.086,1.625 -0.528,0 -0.903,-0.148 -0.903,-0.449 0,-0.051 0.016,-0.113 0.039,-0.176 0.063,0.051 0.125,0.063 0.2,0.063 0.214,0 0.437,-0.149 0.437,-0.301 0,-0.199 -0.113,-0.274 -0.262,-0.274 -0.164,0 -0.363,0.098 -0.461,0.239 -0.125,0.187 -0.187,0.336 -0.187,0.472 0,0.414 0.523,0.602 1.098,0.602 0.925,0 2.164,-0.801 2.8,-1.727 0.2,-0.261 0.375,-0.562 0.602,-0.875 0.16,0 0.348,-0.011 0.535,-0.05 0,0.015 0,0.05 -0.012,0.089 -0.023,0.149 -0.211,0.438 -0.398,0.7 l -0.652,0.898 c -0.086,0.113 -0.114,0.238 -0.114,0.34 0,0.137 0.063,0.262 0.153,0.348 0.113,0.14 0.273,0.214 0.461,0.25 0.062,0.039 0.164,0.078 0.261,0.078 0.153,0 0.328,-0.09 0.489,-0.188 0.101,-0.062 0.199,-0.14 0.3,-0.203 0.325,-0.25 0.586,-0.535 0.801,-0.824 0,-0.012 0.012,-0.024 0.012,-0.035 0,-0.028 -0.012,-0.051 -0.039,-0.063 0,0 -0.024,0 -0.035,0 h -0.09 c -0.024,0 -0.035,0 -0.047,0.012 -0.203,0.285 -0.453,0.574 -0.75,0.824 -0.078,0.063 -0.152,0.125 -0.227,0.176 -0.136,0.074 -0.261,0.113 -0.375,0.113 -0.086,0 -0.175,0 -0.25,-0.015 -0.039,-0.036 -0.062,-0.086 -0.074,-0.149 0,-0.012 0,-0.023 0,-0.051 0,-0.148 0.074,-0.336 0.211,-0.535 l 0.602,-0.84 c 0.175,-0.25 0.261,-0.511 0.261,-0.722 0,-0.051 0,-0.102 -0.011,-0.153 -0.012,-0.062 -0.039,-0.125 -0.075,-0.175 0.11,-0.036 0.223,-0.075 0.348,-0.137 0.375,-0.188 0.762,-0.449 0.977,-0.762 0.222,-0.312 0.324,-0.598 0.324,-0.848 0,-0.265 -0.102,-0.488 -0.262,-0.664 -0.039,-0.05 -0.074,-0.074 -0.113,-0.113 l 0.289,-0.187 c 0.023,-0.012 0.023,-0.024 0.023,-0.051 l -0.011,-0.086 c 0,-0.024 -0.051,-0.051 -0.075,-0.051 0,0 -0.015,0 -0.015,0.012 -0.137,0.078 -0.262,0.152 -0.375,0.238 -0.422,-0.273 -1.012,-0.375 -1.66,-0.375 -0.551,0 -1.227,0.164 -1.903,0.512 -0.597,0.312 -1.172,0.765 -1.523,1.25 -0.274,0.387 -0.449,0.789 -0.449,1.125 0,0.051 0,0.09 0.011,0.137 0.051,0.339 0.325,0.562 0.762,0.562 0.238,0 0.527,-0.098 0.789,-0.262 0.285,-0.175 0.535,-0.398 0.711,-0.636 0.313,-0.461 0.676,-0.973 0.676,-1.387 V 92.711 C 37.578,92.684 37.551,92.66 37.516,92.66 l -0.125,0.051 c -0.028,0 -0.039,0.023 -0.039,0.047 v 0.051 c 0,0.339 -0.637,0.961 -0.864,1.289 -0.148,0.211 -0.297,0.41 -0.523,0.586 -0.176,0.136 -0.375,0.226 -0.524,0.226 -0.363,0 -0.55,-0.164 -0.578,-0.426 l -0.011,-0.101 c 0,-0.285 0.164,-0.649 0.437,-1.035 0.324,-0.465 0.852,-0.903 1.426,-1.188 0.637,-0.34 1.25,-0.488 1.773,-0.488 0.602,0 1.125,0.113 1.465,0.351 -0.926,0.661 -1.637,1.485 -2.277,2.336 -0.024,0 -0.035,0 -0.063,0.024 -0.023,0.039 -0.035,0.062 -0.035,0.09 z m 0.91,0.011 h 0.028 c -0.114,0.024 -0.215,0.024 -0.313,0.036 0.012,-0.012 0.012,-0.036 0.024,-0.036 z" /><path
         id="path106"
         style="fill:#000000;fill-opacity:1;fill-rule:nonzero;stroke:none"
         d="m 43.129,95.027 c 0.035,-0.16 0.047,-0.172 0.172,-0.187 0.027,0 0.215,0 0.328,0 0.348,0 0.484,0 0.625,0.039 0.25,0.074 0.262,0.238 0.262,0.437 0,0.086 0,0.164 -0.039,0.45 l -0.012,0.062 c 0,0.063 0.039,0.09 0.101,0.09 0.086,0 0.086,-0.051 0.098,-0.141 l 0.152,-1.062 c 0,-0.074 -0.062,-0.074 -0.164,-0.074 h -3.425 c -0.137,0 -0.149,0 -0.188,0.113 l -0.363,0.988 c 0,0.024 -0.024,0.074 -0.024,0.098 0,0.027 0.012,0.078 0.102,0.078 0.074,0 0.074,-0.027 0.109,-0.141 0.328,-0.886 0.516,-0.937 1.364,-0.937 h 0.226 c 0.176,0 0.176,0 0.176,0.051 0,0 0,0.039 -0.027,0.113 l -0.739,2.937 c -0.047,0.2 -0.062,0.262 -0.648,0.262 -0.199,0 -0.25,0 -0.25,0.125 0,0.012 0.012,0.074 0.101,0.074 0.149,0 0.325,-0.011 0.473,-0.011 0.164,0 0.324,-0.012 0.477,-0.012 0.16,0 0.347,0 0.511,0.012 0.149,0 0.313,0.011 0.461,0.011 0.051,0 0.125,0 0.125,-0.125 0,-0.074 -0.047,-0.074 -0.222,-0.074 -0.102,0 -0.215,-0.012 -0.325,-0.012 -0.187,-0.011 -0.203,-0.039 -0.203,-0.101 0,-0.047 0,-0.047 0.028,-0.137 z" /><g
         id="g108"><path
           id="path110"
           style="fill:#b9e0ff;fill-opacity:1;fill-rule:nonzero;stroke:#000000;stroke-width:0.14173201;stroke-linecap:butt;stroke-linejoin:miter;stroke-miterlimit:4;stroke-dasharray:none;stroke-opacity:1"
           d="M 35.773,78.402 H 69.98 c 3.684,0 6.645,0.758 6.645,1.703 v 6.305 c 0,0.945 -2.961,1.703 -6.645,1.703 H 35.773 c -3.679,0 -6.644,-0.758 -6.644,-1.703 v -6.305 c 0,-0.945 2.965,-1.703 6.644,-1.703 z" /></g><path
         id="path112"
         style="fill:#000000;fill-opacity:1;fill-rule:nonzero;stroke:none"
         d="m 52.172,82.605 h -0.176 c 0.461,-0.75 0.988,-1.527 1.762,-2.125 0.125,0.137 0.199,0.313 0.199,0.524 0,0.238 -0.098,0.527 -0.324,0.851 -0.188,0.262 -0.461,0.524 -0.785,0.688 -0.102,0.051 -0.215,0.098 -0.313,0.148 -0.09,-0.05 -0.215,-0.086 -0.363,-0.086 z m -0.938,0.176 c -0.25,0.348 -0.488,0.688 -0.726,1.024 -0.574,0.812 -1.41,1.625 -2.086,1.625 -0.527,0 -0.902,-0.153 -0.902,-0.45 0,-0.05 0.015,-0.113 0.039,-0.175 0.062,0.05 0.125,0.062 0.199,0.062 0.215,0 0.437,-0.152 0.437,-0.301 0,-0.199 -0.113,-0.273 -0.261,-0.273 -0.164,0 -0.364,0.098 -0.461,0.238 -0.125,0.184 -0.188,0.336 -0.188,0.473 0,0.414 0.524,0.601 1.098,0.601 0.926,0 2.164,-0.8 2.801,-1.726 0.199,-0.262 0.375,-0.563 0.601,-0.875 0.16,0 0.348,-0.012 0.535,-0.051 0,0.016 0,0.051 -0.011,0.09 -0.024,0.148 -0.211,0.437 -0.399,0.699 l -0.652,0.899 c -0.086,0.113 -0.113,0.238 -0.113,0.339 0,0.137 0.062,0.262 0.152,0.348 0.113,0.137 0.273,0.215 0.461,0.25 0.062,0.039 0.164,0.074 0.262,0.074 0.152,0 0.328,-0.086 0.488,-0.187 0.101,-0.063 0.199,-0.137 0.301,-0.199 0.324,-0.25 0.586,-0.536 0.8,-0.825 0,-0.011 0.012,-0.023 0.012,-0.035 0,-0.027 -0.012,-0.051 -0.039,-0.062 0,0 -0.023,0 -0.035,0 h -0.09 c -0.023,0 -0.035,0 -0.047,0.011 -0.203,0.286 -0.453,0.575 -0.75,0.825 -0.078,0.062 -0.152,0.125 -0.226,0.175 -0.137,0.075 -0.262,0.11 -0.375,0.11 -0.086,0 -0.176,0 -0.25,-0.012 -0.039,-0.035 -0.063,-0.086 -0.075,-0.148 0,-0.012 0,-0.028 0,-0.051 0,-0.149 0.075,-0.336 0.211,-0.539 l 0.602,-0.836 c 0.176,-0.25 0.262,-0.512 0.262,-0.723 0,-0.051 0,-0.101 -0.012,-0.152 -0.012,-0.063 -0.039,-0.125 -0.074,-0.176 0.109,-0.035 0.222,-0.074 0.347,-0.137 0.375,-0.187 0.762,-0.449 0.977,-0.761 0.223,-0.313 0.324,-0.602 0.324,-0.852 0,-0.262 -0.101,-0.484 -0.262,-0.66 -0.039,-0.051 -0.074,-0.074 -0.113,-0.113 l 0.289,-0.188 c 0.024,-0.012 0.024,-0.023 0.024,-0.051 L 54.297,79.98 c 0,-0.027 -0.051,-0.05 -0.074,-0.05 0,0 -0.016,0 -0.016,0.011 -0.137,0.075 -0.262,0.153 -0.375,0.239 -0.422,-0.274 -1.012,-0.375 -1.66,-0.375 -0.551,0 -1.227,0.164 -1.902,0.511 -0.598,0.313 -1.172,0.762 -1.524,1.25 -0.273,0.387 -0.449,0.789 -0.449,1.125 0,0.051 0,0.09 0.012,0.137 0.05,0.34 0.324,0.563 0.761,0.563 0.239,0 0.528,-0.098 0.789,-0.262 0.286,-0.176 0.536,-0.399 0.711,-0.637 0.313,-0.461 0.676,-0.976 0.676,-1.387 v -0.089 c -0.012,-0.024 -0.039,-0.047 -0.074,-0.047 l -0.125,0.047 c -0.027,0 -0.039,0.027 -0.039,0.05 v 0.051 c 0,0.336 -0.637,0.961 -0.863,1.289 -0.149,0.211 -0.297,0.41 -0.524,0.586 -0.176,0.137 -0.375,0.227 -0.523,0.227 -0.364,0 -0.551,-0.164 -0.578,-0.426 l -0.012,-0.102 c 0,-0.285 0.164,-0.648 0.437,-1.035 0.325,-0.465 0.852,-0.902 1.426,-1.187 0.637,-0.34 1.25,-0.489 1.774,-0.489 0.601,0 1.125,0.114 1.464,0.348 -0.925,0.664 -1.636,1.488 -2.277,2.34 -0.023,0 -0.035,0 -0.062,0.023 -0.024,0.039 -0.036,0.063 -0.036,0.09 z m 0.911,0.012 h 0.027 c -0.113,0.023 -0.215,0.023 -0.313,0.035 0.012,-0.012 0.012,-0.035 0.024,-0.035 z" /><path
         id="path114"
         style="fill:#000000;fill-opacity:1;fill-rule:nonzero;stroke:none"
         d="m 56.785,83.336 c 0.035,-0.16 0.047,-0.176 0.172,-0.188 0.027,0 0.215,0 0.328,0 0.348,0 0.485,0 0.625,0.04 0.25,0.074 0.262,0.238 0.262,0.437 0,0.086 0,0.16 -0.039,0.449 l -0.012,0.063 c 0,0.062 0.039,0.086 0.102,0.086 0.086,0 0.086,-0.047 0.097,-0.137 l 0.153,-1.063 c 0,-0.074 -0.063,-0.074 -0.164,-0.074 h -3.426 c -0.137,0 -0.149,0 -0.188,0.113 l -0.363,0.989 c 0,0.023 -0.023,0.074 -0.023,0.097 0,0.028 0.011,0.075 0.101,0.075 0.074,0 0.074,-0.024 0.11,-0.137 0.328,-0.887 0.515,-0.938 1.363,-0.938 h 0.226 c 0.176,0 0.176,0 0.176,0.051 0,0 0,0.039 -0.027,0.113 L 55.52,86.25 c -0.047,0.199 -0.063,0.262 -0.649,0.262 -0.199,0 -0.25,0 -0.25,0.125 0,0.011 0.012,0.074 0.102,0.074 0.148,0 0.324,-0.012 0.472,-0.012 0.164,0 0.325,-0.011 0.477,-0.011 0.16,0 0.348,0 0.512,0.011 0.148,0 0.312,0.012 0.461,0.012 0.05,0 0.125,0 0.125,-0.125 0,-0.074 -0.047,-0.074 -0.223,-0.074 -0.102,0 -0.215,-0.012 -0.324,-0.012 -0.188,-0.012 -0.203,-0.039 -0.203,-0.102 0,-0.05 0,-0.05 0.027,-0.136 z" /><g
         id="g116"><path
           id="path118"
           style="fill:#b9e0ff;fill-opacity:1;fill-rule:nonzero;stroke:#000000;stroke-width:0.14173201;stroke-linecap:butt;stroke-linejoin:miter;stroke-miterlimit:4;stroke-dasharray:none;stroke-opacity:1"
           d="M 84.086,66.312 H 49.879 c -3.684,0 -6.645,0.758 -6.645,1.7 v 6.308 c 0,0.942 2.961,1.703 6.645,1.703 h 34.207 c 3.68,0 6.644,-0.761 6.644,-1.703 v -6.308 c 0,-0.942 -2.964,-1.7 -6.644,-1.7 z" /></g><path
         id="path120"
         style="fill:#000000;fill-opacity:1;fill-rule:nonzero;stroke:none"
         d="m 66.273,70.512 h -0.171 c 0.46,-0.75 0.984,-1.524 1.761,-2.125 0.125,0.136 0.199,0.312 0.199,0.527 0,0.234 -0.101,0.524 -0.324,0.848 -0.187,0.261 -0.465,0.527 -0.789,0.687 -0.097,0.051 -0.211,0.102 -0.312,0.153 -0.086,-0.051 -0.211,-0.09 -0.364,-0.09 z m -0.937,0.176 c -0.25,0.351 -0.484,0.687 -0.723,1.023 -0.574,0.812 -1.414,1.625 -2.09,1.625 -0.523,0 -0.898,-0.148 -0.898,-0.449 0,-0.051 0.012,-0.114 0.039,-0.176 0.063,0.051 0.125,0.062 0.199,0.062 0.211,0 0.438,-0.148 0.438,-0.296 0,-0.204 -0.113,-0.278 -0.262,-0.278 -0.164,0 -0.363,0.102 -0.465,0.239 -0.125,0.187 -0.187,0.335 -0.187,0.476 0,0.41 0.527,0.598 1.101,0.598 0.926,0 2.16,-0.801 2.801,-1.723 0.199,-0.266 0.375,-0.562 0.598,-0.875 0.164,0 0.351,-0.016 0.539,-0.051 0,0.012 0,0.051 -0.012,0.086 -0.027,0.153 -0.215,0.438 -0.402,0.699 l -0.649,0.903 c -0.09,0.113 -0.113,0.238 -0.113,0.336 0,0.136 0.062,0.261 0.148,0.351 0.114,0.137 0.278,0.211 0.465,0.25 0.063,0.035 0.16,0.074 0.262,0.074 0.148,0 0.324,-0.085 0.488,-0.187 0.098,-0.063 0.199,-0.137 0.301,-0.199 0.324,-0.25 0.586,-0.539 0.797,-0.824 0,-0.016 0.016,-0.028 0.016,-0.04 0,-0.023 -0.016,-0.05 -0.039,-0.062 0,0 -0.024,0 -0.04,0 h -0.086 c -0.023,0 -0.039,0 -0.05,0.012 -0.2,0.289 -0.45,0.574 -0.75,0.824 -0.074,0.062 -0.149,0.125 -0.223,0.176 -0.141,0.074 -0.266,0.113 -0.375,0.113 -0.09,0 -0.176,0 -0.25,-0.012 -0.039,-0.039 -0.062,-0.09 -0.078,-0.152 0,-0.012 0,-0.023 0,-0.047 0,-0.152 0.078,-0.34 0.215,-0.539 l 0.597,-0.836 c 0.176,-0.25 0.266,-0.516 0.266,-0.727 0,-0.05 0,-0.101 -0.016,-0.148 -0.011,-0.062 -0.035,-0.125 -0.074,-0.176 0.114,-0.039 0.227,-0.074 0.352,-0.136 0.375,-0.188 0.762,-0.454 0.972,-0.766 0.227,-0.313 0.329,-0.598 0.329,-0.848 0,-0.261 -0.102,-0.488 -0.266,-0.664 -0.035,-0.051 -0.074,-0.074 -0.109,-0.113 l 0.285,-0.188 C 68.414,68.012 68.414,68 68.414,67.977 l -0.016,-0.09 c 0,-0.024 -0.046,-0.051 -0.074,-0.051 0,0 -0.012,0 -0.012,0.016 -0.136,0.074 -0.261,0.148 -0.374,0.234 -0.426,-0.274 -1.012,-0.375 -1.665,-0.375 -0.546,0 -1.222,0.164 -1.898,0.516 -0.602,0.312 -1.176,0.761 -1.523,1.25 -0.278,0.386 -0.454,0.785 -0.454,1.125 0,0.046 0,0.086 0.016,0.136 0.047,0.336 0.324,0.563 0.762,0.563 0.238,0 0.523,-0.102 0.785,-0.262 0.289,-0.176 0.539,-0.402 0.715,-0.641 0.312,-0.46 0.676,-0.972 0.676,-1.386 v -0.086 c -0.016,-0.028 -0.04,-0.051 -0.079,-0.051 l -0.125,0.051 c -0.023,0 -0.035,0.023 -0.035,0.051 v 0.046 c 0,0.34 -0.636,0.965 -0.863,1.289 -0.148,0.211 -0.301,0.415 -0.523,0.586 -0.176,0.141 -0.375,0.227 -0.528,0.227 -0.363,0 -0.551,-0.164 -0.574,-0.426 l -0.012,-0.097 c 0,-0.29 0.16,-0.653 0.438,-1.04 0.324,-0.46 0.847,-0.898 1.426,-1.187 0.636,-0.336 1.25,-0.488 1.773,-0.488 0.602,0 1.125,0.113 1.461,0.351 -0.922,0.66 -1.637,1.489 -2.273,2.336 -0.024,0 -0.04,0 -0.063,0.028 -0.023,0.035 -0.039,0.062 -0.039,0.086 z m 0.914,0.011 h 0.023 c -0.109,0.028 -0.211,0.028 -0.312,0.039 0.016,-0.011 0.016,-0.039 0.027,-0.039 z" /><path
         id="path122"
         style="fill:#000000;fill-opacity:1;fill-rule:nonzero;stroke:none"
         d="m 70.887,71.246 c 0.039,-0.164 0.051,-0.176 0.175,-0.187 0.024,0 0.211,0 0.325,0 0.351,0 0.488,0 0.625,0.035 0.25,0.078 0.261,0.238 0.261,0.437 0,0.09 0,0.164 -0.035,0.453 l -0.011,0.063 c 0,0.062 0.035,0.086 0.097,0.086 0.09,0 0.09,-0.051 0.102,-0.137 l 0.148,-1.062 c 0,-0.075 -0.062,-0.075 -0.16,-0.075 h -3.426 c -0.136,0 -0.152,0 -0.187,0.11 l -0.363,0.988 c 0,0.027 -0.024,0.074 -0.024,0.102 0,0.023 0.012,0.074 0.098,0.074 0.074,0 0.074,-0.024 0.113,-0.137 0.324,-0.887 0.512,-0.937 1.363,-0.937 h 0.223 c 0.176,0 0.176,0 0.176,0.05 0,0 0,0.036 -0.024,0.11 l -0.738,2.937 c -0.051,0.199 -0.063,0.262 -0.648,0.262 -0.204,0 -0.25,0 -0.25,0.125 0,0.016 0.011,0.078 0.097,0.078 0.153,0 0.324,-0.016 0.477,-0.016 0.16,0 0.324,-0.011 0.472,-0.011 0.165,0 0.352,0 0.516,0.011 0.149,0 0.313,0.016 0.461,0.016 0.051,0 0.125,0 0.125,-0.125 0,-0.078 -0.051,-0.078 -0.227,-0.078 -0.097,0 -0.21,-0.012 -0.324,-0.012 -0.187,-0.011 -0.199,-0.035 -0.199,-0.097 0,-0.051 0,-0.051 0.023,-0.141 z" /><g
         transform="scale(-1)"
         id="g124"><path
           id="path126"
           style="fill:#ffffff;fill-opacity:1;fill-rule:nonzero;stroke:#fff9b9;stroke-width:0.154744;stroke-linecap:butt;stroke-linejoin:miter;stroke-miterlimit:4;stroke-dasharray:none;stroke-opacity:1"
           d="m -74.496,-65.586 h -16.789 v -10.977 h 16.789 z" /></g><path
         id="path128"
         style="fill:#000000;fill-opacity:1;fill-rule:nonzero;stroke:none"
         d="m 139.395,113.645 c 0,-0.637 -0.036,-1.274 -0.313,-1.86 -0.359,-0.777 -1.023,-0.902 -1.348,-0.902 -0.488,0 -1.062,0.215 -1.402,0.949 -0.25,0.551 -0.285,1.176 -0.285,1.813 0,0.601 0.023,1.312 0.363,1.925 0.336,0.637 0.922,0.801 1.313,0.801 0.422,0 1.035,-0.164 1.386,-0.926 0.25,-0.55 0.286,-1.175 0.286,-1.8 z m -1.672,2.55 c -0.313,0 -0.789,-0.199 -0.926,-0.961 -0.09,-0.476 -0.09,-1.214 -0.09,-1.687 0,-0.512 0,-1.039 0.063,-1.465 0.152,-0.949 0.75,-1.023 0.953,-1.023 0.261,0 0.785,0.148 0.937,0.937 0.086,0.449 0.086,1.051 0.086,1.551 0,0.598 0,1.137 -0.086,1.648 -0.125,0.762 -0.578,1 -0.937,1 z" /><path
         id="path130"
         style="fill:#000000;fill-opacity:1;fill-rule:nonzero;stroke:none"
         d="m 153.125,113.645 c 0,-0.637 -0.039,-1.274 -0.313,-1.86 -0.363,-0.777 -1.027,-0.902 -1.351,-0.902 -0.488,0 -1.063,0.215 -1.399,0.949 -0.25,0.551 -0.289,1.176 -0.289,1.813 0,0.601 0.024,1.312 0.364,1.925 0.336,0.637 0.925,0.801 1.312,0.801 0.426,0 1.035,-0.164 1.387,-0.926 0.25,-0.55 0.289,-1.175 0.289,-1.8 z m -1.676,2.55 c -0.312,0 -0.789,-0.199 -0.926,-0.961 -0.085,-0.476 -0.085,-1.214 -0.085,-1.687 0,-0.512 0,-1.039 0.062,-1.465 0.148,-0.949 0.75,-1.023 0.949,-1.023 0.262,0 0.785,0.148 0.938,0.937 0.086,0.449 0.086,1.051 0.086,1.551 0,0.598 0,1.137 -0.086,1.648 -0.125,0.762 -0.575,1 -0.938,1 z" /><path
         id="path132"
         style="fill:#000000;fill-opacity:1;fill-rule:nonzero;stroke:none"
         d="m 125.668,113.645 c 0,-0.637 -0.035,-1.274 -0.313,-1.86 -0.359,-0.777 -1.023,-0.902 -1.347,-0.902 -0.488,0 -1.063,0.215 -1.403,0.949 -0.25,0.551 -0.285,1.176 -0.285,1.813 0,0.601 0.024,1.312 0.364,1.925 0.336,0.637 0.921,0.801 1.312,0.801 0.422,0 1.035,-0.164 1.387,-0.926 0.25,-0.55 0.285,-1.175 0.285,-1.8 z m -1.672,2.55 c -0.312,0 -0.789,-0.199 -0.926,-0.961 -0.09,-0.476 -0.09,-1.214 -0.09,-1.687 0,-0.512 0,-1.039 0.063,-1.465 0.152,-0.949 0.75,-1.023 0.953,-1.023 0.262,0 0.785,0.148 0.938,0.937 0.086,0.449 0.086,1.051 0.086,1.551 0,0.598 0,1.137 -0.086,1.648 -0.125,0.762 -0.579,1 -0.938,1 z" /><path
         id="path134"
         style="fill:#000000;fill-opacity:1;fill-rule:nonzero;stroke:none"
         d="m 75.215,114.059 c 0,-0.637 -0.039,-1.274 -0.313,-1.864 -0.363,-0.773 -1.027,-0.898 -1.351,-0.898 -0.489,0 -1.063,0.211 -1.399,0.949 -0.25,0.551 -0.289,1.176 -0.289,1.813 0,0.601 0.028,1.312 0.364,1.925 0.335,0.637 0.925,0.801 1.312,0.801 0.426,0 1.039,-0.164 1.387,-0.926 0.25,-0.55 0.289,-1.175 0.289,-1.8 z m -1.676,2.55 c -0.312,0 -0.789,-0.199 -0.926,-0.961 -0.086,-0.476 -0.086,-1.214 -0.086,-1.687 0,-0.516 0,-1.039 0.063,-1.465 0.148,-0.949 0.75,-1.023 0.949,-1.023 0.262,0 0.789,0.148 0.938,0.937 0.085,0.449 0.085,1.051 0.085,1.551 0,0.598 0,1.137 -0.085,1.648 -0.125,0.762 -0.575,1 -0.938,1 z" /><g
         id="g136"><path
           id="path138"
           style="fill:none;stroke:#000000;stroke-width:0.50031501;stroke-linecap:butt;stroke-linejoin:miter;stroke-miterlimit:4;stroke-dasharray:none;stroke-opacity:1"
           d="m 29.652,107.93 c 5.41,-5.821 5.41,-5.821 5.41,-5.821" /></g><path
         id="path140"
         style="fill:#000000;fill-opacity:1;fill-rule:nonzero;stroke:none"
         d="m 26.703,105.449 c -0.058,-0.097 -0.078,-0.121 0.082,-0.285 0.047,-0.047 0.067,-0.066 0.024,-0.113 -0.024,-0.024 -0.043,0 -0.082,0.035 l -0.278,0.289 c -0.058,0.055 -0.062,0.059 -0.043,0.125 l 0.465,2.008 -1.398,-1.035 c -0.059,-0.043 -0.063,-0.039 -0.118,0.019 l -0.293,0.297 c -0.039,0.039 -0.062,0.066 -0.019,0.106 0.027,0.027 0.047,0.003 0.086,-0.036 0.031,-0.031 0.07,-0.066 0.098,-0.093 0.039,-0.028 0.054,-0.036 0.082,-0.012 0.007,0.008 0.011,0.019 0.031,0.051 l 0.836,1.359 c 0.066,0.106 0.101,0.211 -0.067,0.395 -0.011,0.007 -0.035,0.039 0.004,0.078 0.02,0.019 0.039,0.011 0.059,-0.004 0.066,-0.071 0.133,-0.153 0.207,-0.227 0.066,-0.07 0.152,-0.144 0.223,-0.215 0.007,-0.011 0.039,-0.039 -0.004,-0.086 -0.024,-0.023 -0.047,0.004 -0.067,0.02 -0.117,0.121 -0.187,0.102 -0.238,0.055 -0.012,-0.016 -0.027,-0.028 -0.043,-0.059 l -0.895,-1.453 0.004,-0.004 1.532,1.129 c 0.031,0.023 0.058,0.043 0.082,0.019 0.023,-0.023 0.011,-0.058 0.007,-0.082 l -0.519,-2.23 h 0.004 l 0.937,1.527 c 0.067,0.106 0.082,0.125 -0.09,0.301 -0.031,0.031 -0.054,0.059 -0.015,0.098 0.027,0.027 0.051,0 0.058,-0.004 0.059,-0.063 0.196,-0.215 0.254,-0.277 0.09,-0.09 0.188,-0.176 0.274,-0.266 0.015,-0.016 0.043,-0.043 -0.004,-0.086 -0.024,-0.023 -0.043,0 -0.082,0.039 -0.078,0.078 -0.137,0.141 -0.176,0.102 -0.008,-0.008 -0.012,-0.012 -0.043,-0.063 z" /><path
         id="path142"
         style="fill:#000000;fill-opacity:1;fill-rule:nonzero;stroke:none"
         d="m 29.715,104 c 0.039,-0.035 0.078,-0.078 0.035,-0.121 -0.043,-0.039 -0.082,0 -0.117,0.039 l -1.153,1.176 c -0.035,0.039 -0.074,0.074 -0.031,0.117 0.043,0.043 0.082,0.004 0.117,-0.031 z" /><path
         id="path144"
         style="fill:#000000;fill-opacity:1;fill-rule:nonzero;stroke:none"
         d="m 31.047,103.309 v -0.45 c 0.031,-0.632 0.043,-0.875 -0.176,-1.089 -0.25,-0.243 -0.613,-0.219 -0.875,0.046 -0.238,0.246 -0.195,0.606 0,0.793 0.121,0.118 0.227,0.008 0.234,0 0.036,-0.035 0.086,-0.132 -0.007,-0.222 -0.055,-0.055 -0.153,-0.071 -0.227,0.004 -0.016,0.015 -0.019,0.019 -0.023,0.031 -0.094,-0.188 -0.059,-0.383 0.066,-0.512 0.191,-0.195 0.461,-0.113 0.637,0.059 0.176,0.168 0.242,0.441 0.258,0.699 l 0.058,0.867 c 0,0.047 0.008,0.055 0.059,0.106 l 0.789,-0.809 -0.32,-0.43 -0.051,0.055 c 0.051,0.074 0.133,0.184 0.144,0.238 0.004,0.032 -0.136,0.176 -0.183,0.223 z" /><path
         id="path146"
         style="fill:#000000;fill-opacity:1;fill-rule:nonzero;stroke:none"
         d="m 18.957,111.508 c 0,-0.199 0,-0.211 -0.187,-0.211 -0.5,0.512 -1.204,0.512 -1.454,0.512 v 0.25 c 0.164,0 0.625,0 1.039,-0.211 v 4.136 c 0,0.286 -0.023,0.375 -0.738,0.375 h -0.25 v 0.25 c 0.278,-0.027 0.965,-0.027 1.289,-0.027 0.313,0 1.012,0 1.285,0.027 v -0.25 h -0.25 c -0.722,0 -0.734,-0.089 -0.734,-0.375 z" /><path
         id="path148"
         style="fill:#000000;fill-opacity:1;fill-rule:nonzero;stroke:none"
         d="m 32.684,111.508 c 0,-0.199 0,-0.211 -0.188,-0.211 -0.5,0.512 -1.199,0.512 -1.449,0.512 v 0.25 c 0.16,0 0.625,0 1.035,-0.211 v 4.136 c 0,0.286 -0.023,0.375 -0.738,0.375 h -0.25 v 0.25 c 0.277,-0.027 0.965,-0.027 1.289,-0.027 0.312,0 1.012,0 1.289,0.027 v -0.25 h -0.25 c -0.727,0 -0.738,-0.089 -0.738,-0.375 z" /><path
         id="path150"
         style="fill:#000000;fill-opacity:1;fill-rule:nonzero;stroke:none"
         d="m 46.41,111.508 c 0,-0.199 0,-0.211 -0.187,-0.211 -0.5,0.512 -1.2,0.512 -1.45,0.512 v 0.25 c 0.161,0 0.625,0 1.036,-0.211 v 4.136 c 0,0.286 -0.024,0.375 -0.739,0.375 h -0.25 v 0.25 c 0.278,-0.027 0.965,-0.027 1.289,-0.027 0.313,0 1.012,0 1.289,0.027 v -0.25 h -0.25 c -0.726,0 -0.738,-0.089 -0.738,-0.375 z" /><path
         id="path152"
         style="fill:#000000;fill-opacity:1;fill-rule:nonzero;stroke:none"
         d="m 82.219,69.887 c 0.203,0.203 0.203,0.543 0,0.746 -0.215,0.215 -0.555,0.215 -0.758,0.012 -0.215,-0.215 -0.215,-0.555 0,-0.77 0.203,-0.203 0.543,-0.203 0.758,0.012 z" /><path
         id="path154"
         style="fill:#000000;fill-opacity:1;fill-rule:nonzero;stroke:none"
         d="m 85.426,66.68 c 0.203,0.203 0.203,0.543 0,0.746 -0.215,0.215 -0.555,0.215 -0.758,0.012 -0.215,-0.215 -0.215,-0.555 0,-0.77 0.203,-0.203 0.543,-0.203 0.758,0.012 z" /><path
         id="path156"
         style="fill:#000000;fill-opacity:1;fill-rule:nonzero;stroke:none"
         d="m 88.625,63.48 c 0.207,0.204 0.207,0.543 0,0.747 -0.215,0.214 -0.551,0.214 -0.758,0.011 -0.215,-0.215 -0.215,-0.554 0,-0.769 0.207,-0.203 0.543,-0.203 0.758,0.011 z" /><path
         id="path158"
         style="fill:#000000;fill-opacity:1;fill-rule:nonzero;stroke:none"
         d="m 94.77,113.637 c 0,0.285 -0.239,0.527 -0.528,0.527 -0.301,0 -0.543,-0.242 -0.543,-0.527 0,-0.305 0.242,-0.547 0.543,-0.547 0.289,0 0.528,0.242 0.528,0.547 z" /><path
         id="path160"
         style="fill:#000000;fill-opacity:1;fill-rule:nonzero;stroke:none"
         d="m 99.309,113.637 c 0,0.285 -0.243,0.527 -0.528,0.527 -0.304,0 -0.547,-0.242 -0.547,-0.527 0,-0.305 0.243,-0.547 0.547,-0.547 0.285,0 0.528,0.242 0.528,0.547 z" /><path
         id="path162"
         style="fill:#000000;fill-opacity:1;fill-rule:nonzero;stroke:none"
         d="m 103.832,113.637 c 0,0.285 -0.238,0.527 -0.527,0.527 -0.301,0 -0.543,-0.242 -0.543,-0.527 0,-0.305 0.242,-0.547 0.543,-0.547 0.289,0 0.527,0.242 0.527,0.547 z" /><g
         id="g164"><path
           id="path166"
           style="fill:none;stroke:#000000;stroke-width:0.37417299;stroke-linecap:butt;stroke-linejoin:miter;stroke-miterlimit:4;stroke-dasharray:none;stroke-opacity:1"
           d="m 51.977,120.711 c 0.046,5.223 -14.071,-0.02 -19.618,3.914 -5.605,-3.945 -19.714,1.387 -19.621,-3.914" /></g><path
         id="path168"
         style="fill:#000000;fill-opacity:1;fill-rule:nonzero;stroke:none"
         d="m 35.414,126.406 c 0.074,-0.289 0.086,-0.363 0.688,-0.363 0.175,0 0.25,0 0.25,-0.164 0,-0.086 -0.075,-0.086 -0.211,-0.086 H 35.09 c -0.215,0 -0.227,0 -0.313,0.148 l -2.914,4.551 -0.625,-4.512 c -0.023,-0.187 -0.035,-0.187 -0.25,-0.187 h -1.086 c -0.152,0 -0.238,0 -0.238,0.148 0,0.102 0.074,0.102 0.227,0.102 0.109,0 0.25,0.012 0.347,0.012 0.125,0.023 0.176,0.039 0.176,0.136 0,0.028 -0.012,0.051 -0.039,0.153 l -1.012,4.047 c -0.074,0.328 -0.211,0.578 -0.863,0.601 -0.035,0 -0.137,0.012 -0.137,0.149 0,0.078 0.051,0.101 0.114,0.101 0.25,0 0.523,-0.023 0.8,-0.023 0.262,0 0.551,0.023 0.813,0.023 0.035,0 0.148,0 0.148,-0.164 0,-0.086 -0.086,-0.086 -0.148,-0.086 -0.449,0 -0.539,-0.164 -0.539,-0.351 0,-0.047 0,-0.098 0.027,-0.188 l 1.086,-4.336 h 0.012 l 0.687,4.938 c 0.012,0.101 0.028,0.187 0.114,0.187 0.085,0 0.136,-0.086 0.175,-0.137 l 3.223,-5.05 h 0.016 l -1.153,4.562 c -0.074,0.313 -0.086,0.375 -0.722,0.375 -0.125,0 -0.215,0 -0.215,0.149 0,0.101 0.09,0.101 0.113,0.101 0.227,0 0.762,-0.023 0.988,-0.023 0.325,0 0.676,0.023 1,0.023 0.051,0 0.149,0 0.149,-0.164 0,-0.086 -0.074,-0.086 -0.223,-0.086 -0.289,0 -0.516,0 -0.516,-0.137 0,-0.039 0,-0.05 0.04,-0.199 z" /><g
         id="g170"><path
           id="path172"
           style="fill:none;stroke:#000000;stroke-width:0.37417299;stroke-linecap:butt;stroke-linejoin:miter;stroke-miterlimit:4;stroke-dasharray:none;stroke-opacity:1"
           d="m 157.047,120.727 c 0.125,5.222 -35.563,-0.02 -49.586,3.914 -14.164,-3.946 -49.832,1.386 -49.586,-3.914" /></g><path
         id="path174"
         style="fill:#000000;fill-opacity:1;fill-rule:nonzero;stroke:none"
         d="m 109.816,126.629 c 0.09,-0.313 0.227,-0.563 0.864,-0.586 0.039,0 0.136,-0.012 0.136,-0.164 0,0 0,-0.086 -0.097,-0.086 -0.266,0 -0.551,0.023 -0.813,0.023 -0.265,0 -0.551,-0.023 -0.812,-0.023 -0.051,0 -0.141,0 -0.141,0.16 0,0.09 0.078,0.09 0.141,0.09 0.461,0.012 0.547,0.176 0.547,0.348 0,0.027 -0.024,0.152 -0.024,0.164 l -0.898,3.55 -1.766,-4.164 c -0.062,-0.136 -0.062,-0.148 -0.25,-0.148 h -1.074 c -0.149,0 -0.223,0 -0.223,0.16 0,0.09 0.074,0.09 0.223,0.09 0.039,0 0.539,0 0.539,0.074 l -1.063,4.274 c -0.089,0.324 -0.226,0.574 -0.863,0.601 -0.051,0 -0.137,0.012 -0.137,0.16 0,0.051 0.036,0.09 0.098,0.09 0.266,0 0.539,-0.027 0.801,-0.027 0.277,0 0.562,0.027 0.824,0.027 0.039,0 0.141,0 0.141,-0.164 0,-0.074 -0.078,-0.086 -0.164,-0.086 -0.461,-0.012 -0.524,-0.187 -0.524,-0.351 0,-0.051 0.012,-0.098 0.035,-0.188 l 1.051,-4.199 c 0.039,0.039 0.039,0.062 0.074,0.137 l 1.989,4.699 c 0.05,0.14 0.074,0.152 0.148,0.152 0.09,0 0.09,-0.027 0.125,-0.164 z" /><g
         id="g176"><path
           id="path178"
           style="fill:none;stroke:#000000;stroke-width:0.37417299;stroke-linecap:butt;stroke-linejoin:miter;stroke-miterlimit:4;stroke-dasharray:none;stroke-opacity:1"
           d="m 157.34,13.316 c 0.047,-5.222 -14.07,0.02 -19.617,-3.918 -5.606,3.95 -19.715,-1.386 -19.618,3.918" /></g><path
         id="path180"
         style="fill:#000000;fill-opacity:1;fill-rule:nonzero;stroke:none"
         d="m 140.777,2.449 c 0.075,-0.285 0.086,-0.363 0.688,-0.363 0.172,0 0.25,0 0.25,-0.16 0,-0.09 -0.078,-0.09 -0.215,-0.09 h -1.051 c -0.211,0 -0.222,0 -0.312,0.152 l -2.91,4.551 -0.625,-4.516 c -0.028,-0.187 -0.04,-0.187 -0.25,-0.187 h -1.09 c -0.149,0 -0.235,0 -0.235,0.152 0,0.098 0.075,0.098 0.223,0.098 0.113,0 0.25,0.016 0.352,0.016 0.125,0.023 0.175,0.035 0.175,0.136 0,0.024 -0.015,0.051 -0.039,0.149 l -1.011,4.051 c -0.075,0.324 -0.215,0.574 -0.864,0.601 -0.035,0 -0.136,0.012 -0.136,0.149 0,0.074 0.05,0.101 0.113,0.101 0.25,0 0.523,-0.027 0.797,-0.027 0.265,0 0.551,0.027 0.812,0.027 0.039,0 0.153,0 0.153,-0.164 0,-0.086 -0.09,-0.086 -0.153,-0.086 -0.449,0 -0.535,-0.164 -0.535,-0.351 0,-0.051 0,-0.102 0.024,-0.188 l 1.089,-4.336 h 0.012 l 0.688,4.938 c 0.011,0.097 0.023,0.187 0.113,0.187 0.086,0 0.137,-0.09 0.172,-0.141 l 3.226,-5.046 h 0.012 l -1.148,4.562 c -0.075,0.313 -0.09,0.375 -0.727,0.375 -0.125,0 -0.211,0 -0.211,0.149 0,0.101 0.086,0.101 0.113,0.101 0.223,0 0.762,-0.027 0.985,-0.027 0.328,0 0.676,0.027 1,0.027 0.05,0 0.152,0 0.152,-0.164 0,-0.086 -0.074,-0.086 -0.226,-0.086 -0.286,0 -0.512,0 -0.512,-0.141 0,-0.035 0,-0.046 0.039,-0.199 z" /><g
         id="g182"><path
           id="path184"
           style="fill:none;stroke:#000000;stroke-width:0.37417299;stroke-linecap:butt;stroke-linejoin:miter;stroke-miterlimit:4;stroke-dasharray:none;stroke-opacity:1"
           d="M 114.035,13.305 C 114.156,8.086 78.469,13.324 64.449,9.391 50.285,13.336 14.617,8.004 14.863,13.305" /></g><path
         id="path186"
         style="fill:#000000;fill-opacity:1;fill-rule:nonzero;stroke:none"
         d="m 56.387,0.855 c 0,-0.136 0,-0.285 -0.153,-0.285 -0.16,0 -0.16,0.149 -0.16,0.285 V 8.27 c 0,0.136 0,0.285 0.16,0.285 0.153,0 0.153,-0.149 0.153,-0.285 z" /><path
         id="path188"
         style="fill:#000000;fill-opacity:1;fill-rule:nonzero;stroke:none"
         d="m 60.738,1.742 c 0,-0.273 0,-0.387 0.762,-0.387 h 0.262 v -0.25 c -0.285,0.028 -1.024,0.028 -1.348,0.028 -0.324,0 -1.062,0 -1.352,-0.028 v 0.25 h 0.262 c 0.75,0 0.75,0.102 0.75,0.387 V 5.281 C 59.039,5.008 59,3.77 59,3.258 58.988,2.293 58.637,2.145 58.289,2.145 h -0.301 c -0.113,0 -0.199,0 -0.199,0.085 0,0.04 0.023,0.075 0.074,0.09 0.262,0.024 0.461,0.137 0.477,1.075 0,0.187 0.023,0.812 0.398,1.347 0.313,0.438 0.801,0.664 1.336,0.738 v 0.45 c 0,0.265 0,0.375 -0.75,0.375 h -0.262 v 0.25 c 0.29,-0.024 1.012,-0.024 1.352,-0.024 0.324,0 1.063,0 1.348,0.024 V 6.305 H 61.5 c -0.762,0 -0.762,-0.098 -0.762,-0.375 V 5.48 c 0.574,-0.074 1.063,-0.312 1.375,-0.722 0.414,-0.563 0.426,-1.203 0.426,-1.551 0,-0.125 0.012,-0.84 0.438,-0.887 0.05,-0.015 0.097,-0.027 0.097,-0.09 0,-0.085 -0.062,-0.085 -0.187,-0.085 H 62.59 c -0.313,0 -0.703,0.05 -0.715,1.21 -0.012,0.875 -0.273,1.715 -1.137,1.926 z" /><path
         id="path190"
         style="fill:#000000;fill-opacity:1;fill-rule:nonzero;stroke:none"
         d="m 69.223,4.402 c 0.05,-0.214 0.062,-0.261 0.476,-0.261 0.125,0 0.188,0 0.188,-0.114 0,-0.089 -0.063,-0.089 -0.164,-0.089 h -0.762 c -0.164,0 -0.164,0.015 -0.238,0.113 L 66.574,7.238 66.023,4.09 C 66,3.953 66,3.938 65.824,3.938 h -0.789 c -0.113,0 -0.187,0 -0.187,0.124 0,0.079 0.062,0.079 0.187,0.079 0.09,0 0.113,0 0.215,0.011 0.109,0.012 0.125,0.024 0.125,0.086 0,0 0,0.039 -0.027,0.114 l -0.7,2.8 c -0.05,0.188 -0.136,0.387 -0.586,0.399 -0.039,0 -0.113,0 -0.113,0.125 0,0 0,0.074 0.086,0.074 0.164,0 0.403,-0.023 0.574,-0.023 0.141,0 0.465,0.023 0.59,0.023 0.035,0 0.113,0 0.113,-0.125 0,-0.074 -0.078,-0.074 -0.124,-0.074 -0.352,-0.012 -0.352,-0.16 -0.352,-0.239 0,-0.023 0,-0.046 0.023,-0.136 l 0.739,-2.961 0.601,3.387 c 0.024,0.101 0.024,0.148 0.113,0.148 0.075,0 0.126,-0.062 0.161,-0.125 l 2.339,-3.473 0.012,0.012 -0.789,3.148 c -0.051,0.188 -0.062,0.239 -0.488,0.239 -0.098,0 -0.172,0 -0.172,0.125 0,0 0,0.074 0.086,0.074 0.113,0 0.238,-0.012 0.351,-0.012 0.11,0 0.235,-0.011 0.348,-0.011 0.164,0 0.551,0.023 0.715,0.023 0.023,0 0.109,0 0.109,-0.125 0,-0.074 -0.062,-0.074 -0.172,-0.074 -0.015,0 -0.113,0 -0.214,-0.012 -0.125,-0.012 -0.125,-0.023 -0.125,-0.086 0,-0.027 0.011,-0.09 0.011,-0.113 z" /><path
         id="path192"
         style="fill:#000000;fill-opacity:1;fill-rule:nonzero;stroke:none"
         d="m 72.785,4.695 c 0.039,-0.09 0.039,-0.113 0.039,-0.14 0,-0.012 0,-0.035 -0.039,-0.125 L 71.398,0.758 C 71.348,0.617 71.301,0.57 71.211,0.57 c -0.086,0 -0.16,0.075 -0.16,0.16 0,0.028 0,0.04 0.035,0.125 l 1.414,3.7 -1.414,3.687 c -0.035,0.09 -0.035,0.113 -0.035,0.153 0,0.085 0.074,0.16 0.16,0.16 0.101,0 0.137,-0.086 0.164,-0.16 z" /></g></g></svg>